<svg width="557" height="595" viewBox="0 0 557 595" fill="none" xmlns="http://www.w3.org/2000/svg">
<g clip-path="url(#clip0)">
<path d="M104.662 94.7378L113.679 91.261L116.047 96.4108L117.142 108.718L115.124 110.179L104.662 94.7378Z" fill="black"/>
<path d="M148.471 118.977L138.172 124.927L148.993 140.874L151.517 139.038L153.085 126.38L148.471 118.977Z" fill="black"/>
<g opacity="0.05">
<path opacity="0.05" d="M170.073 44.6837C167.998 47.8177 166.063 51.2129 165.467 53.596L167.1 52.4697C166.896 50.6987 168.243 47.7606 170.073 44.6837Z" fill="black"/>
<path opacity="0.05" d="M179.359 87.3353L180.494 63.4795C155.176 79.533 118.13 94.1828 118.13 94.1828L116.341 97.0148C116.341 97.0148 153.428 82.365 178.706 66.3115L177.644 88.7799L179.359 87.3353Z" fill="black"/>
</g>
<g opacity="0.5">
<path opacity="0.5" d="M113.082 111.338L115.157 109.828L114.038 97.1536L111.596 91.8568L102.31 95.4397L113.082 111.338Z" fill="url(#paint0_linear)"/>
<path opacity="0.5" d="M254.472 1.5342C248.829 -1.17539 244.606 0.0977879 241.65 2.35034C239.01 4.33647 236.95 6.99047 235.68 10.0384L234.863 12.2012L231.041 14.9761L229.799 12.3236C229.799 12.3236 216.266 -11.7036 176.345 35.2164L176.165 35.0695C176.165 35.0695 172.768 39.2236 169.673 43.8838L169.232 44.553L169.036 44.855L168.758 45.2876L168.554 45.614L168.243 46.1282L167.974 46.5689L167.688 47.0504L167.484 47.4014L167.271 47.7686L167.067 48.1359L166.855 48.5276L166.545 49.1153L166.373 49.4417L166.185 49.8253L166.046 50.1191L165.867 50.5027L165.752 50.7557C165.654 50.9842 165.562 51.2073 165.475 51.4249L165.377 51.678L165.246 52.0371L165.164 52.2819C165.104 52.4669 165.05 52.6492 165.001 52.8287C165.001 52.9267 164.944 53.0164 164.927 53.1062C164.767 53.6793 164.707 54.2755 164.748 54.8691L111.596 91.8321L114.324 97.7573C114.324 97.7573 152.522 82.675 178.558 66.1318L177.464 89.2694L177.399 90.6977C177.399 90.6977 153.616 110.375 147.425 120.397L136.808 126.526L147.956 142.947L150.553 141.062L152.187 128.004L195.824 93.1461C195.824 93.1461 204.097 78.0393 204.244 65.3973L206.033 72.2937C206.033 72.2937 209.839 82.977 212.526 83.4014C215.213 83.8258 215.221 75.1175 213.342 72.5304C211.464 69.9432 212.346 52.6573 212.346 52.6573L212.836 49.1397L219.664 44.1776L219.917 43.9409L220.276 46.1119L221.648 46.2343V46.3322L221.714 46.9607L222.596 63.4386L227.431 82.0792C227.431 82.0792 231.237 92.7625 233.924 93.1869C236.611 93.6113 236.619 84.9031 234.74 82.3159C232.862 79.7287 233.752 62.451 233.752 62.451L235.745 48.0624V47.785L235.786 47.4667L239.714 47.8094C239.714 47.8094 243.798 33.78 236.962 27.6671L235.72 25.0146L238.268 23.1701L238.783 22.8029C240.943 24.9139 243.843 26.0961 246.864 26.0961C249.885 26.0961 252.786 24.9139 254.946 22.8029C256.856 22.9804 258.768 22.4711 260.336 21.3664L261.324 20.6564C262.388 19.9818 263.348 19.1571 264.175 18.208C264.869 16.9185 263.211 5.721 254.472 1.5342Z" fill="url(#paint1_linear)"/>
</g>
<path d="M176.411 36.1306C176.411 36.1306 164.789 50.3315 165.336 55.3099L113.687 91.261L116.333 97.0148C116.333 97.0148 153.42 82.365 178.697 66.3115L177.57 90.2C177.57 90.2 154.482 109.273 148.479 119.01L153.093 126.412L195.464 92.5668C195.464 92.5668 208.034 69.6169 201.998 57.0973L176.411 36.1306Z" fill="#535461"/>
<path d="M548.661 384.011C511.46 533.104 360.335 623.851 211.105 586.667C61.8743 549.484 -28.8791 398.457 8.34679 249.348C45.5727 100.239 196.657 9.48356 345.838 46.6588C495.019 83.8341 585.863 234.877 548.661 384.011Z" fill="#352A1C"/>
<path d="M307 441L391 341L285 517L307 441Z" fill="white"/>
<path d="M391 321L285 165V321H391Z" fill="white"/>
<path d="M170 341L285 165L296 287L170 341Z" fill="white"/>
<path d="M170 361L307 441L285 517L170 361Z" fill="white"/>
<path d="M391 321L296 287V321L307 421L391 321Z" fill="#D9D6D1"/>
<path d="M170 341L272 279L296 287L307 421L170 341Z" fill="#E1D9E1"/>
<path d="M358 193L369 118L387 123L358 193ZM372 201L418 141L431 155L372 201ZM380 214L449 186L454 204L380 214Z" fill="white"/>
<path d="M202.505 61.7085L205.371 72.7509C205.371 72.7509 209.063 83.1241 211.676 83.5321C214.29 83.9402 214.298 75.485 212.493 72.9713C211.529 71.6491 211.325 66.3932 211.342 61.7085H202.505Z" fill="#FDA57D"/>
<path d="M220.097 38.5464L221.436 63.6835L226.124 81.7774C226.124 81.7774 229.816 92.1506 232.429 92.5586C235.043 92.9667 235.051 84.5115 233.246 81.9978C231.441 79.4841 232.307 62.7123 232.307 62.7123L235.214 41.3702L220.097 38.5464Z" fill="#FDA57D"/>
<path d="M218.537 42.7577L219.215 46.8384L238.113 48.4707C238.113 48.4707 242.066 34.8493 235.435 28.8833L218.537 42.7577Z" fill="#F55F44"/>
<path d="M235.435 28.9403L228.452 14.0458C228.452 14.0458 215.262 -9.36935 176.304 36.5631L201.998 57.0646L218.627 44.9857L235.435 28.9403Z" fill="#F55F44"/>
<path d="M240.938 8.44031L247.152 16.9832L233.589 26.8341C232.642 27.5213 231.462 27.8048 230.306 27.6221C229.151 27.4395 228.116 26.8057 227.428 25.8602L226.405 24.454C225.718 23.5085 225.434 22.3287 225.617 21.1742C225.8 20.0197 226.434 18.9851 227.38 18.2979L240.943 8.44692L240.938 8.44031Z" fill="#FDA57D"/>
<path opacity="0.05" d="M233.728 13.6786C233.196 15.5939 233.192 17.6172 233.715 19.5348C234.238 21.4525 235.27 23.1935 236.7 24.5741L243.112 19.9139L236.896 11.3689L233.728 13.6786Z" fill="black"/>
<path d="M251.617 25.247C256.627 21.6085 257.743 14.6096 254.11 9.61438C250.477 4.61919 243.47 3.51937 238.461 7.15787C233.451 10.7964 232.335 17.7954 235.968 22.7906C239.601 27.7857 246.608 28.8855 251.617 25.247Z" fill="#FDA57D"/>
<path opacity="0.05" d="M239.853 9.60597L233.376 13.9315L234.193 11.8259C234.193 11.8259 239.518 -2.04853 251.932 3.93379C260.418 8.0145 262.027 18.8692 261.382 20.1097C260.424 21.1508 259.324 22.052 258.115 22.7867C256.522 23.9149 254.563 24.405 252.626 24.1602C250.689 23.9154 248.914 22.9535 247.653 21.4645C245.48 18.8773 241.691 13.5235 242.385 10.4548C241.748 9.29584 240.915 8.82248 239.845 9.63862L239.853 9.60597Z" fill="black"/>
<path d="M240.359 9.23867L233.883 13.5642L234.7 11.4586C234.7 11.4586 240.025 -2.41584 252.439 3.56648C260.924 7.64719 262.533 18.5019 261.888 19.7424C260.93 20.7835 259.83 21.6847 258.621 22.4194C257.028 23.5475 255.07 24.0377 253.133 23.7929C251.196 23.5481 249.421 22.5862 248.159 21.0972C245.987 18.51 242.197 13.1561 242.891 10.0875C242.254 8.92853 241.421 8.45517 240.351 9.27131L240.359 9.23867Z" fill="#5A2F32"/>
<path d="M242.547 9.95774C243.661 9.14663 244.237 8.03922 243.832 7.48427C243.428 6.92931 242.197 7.13697 241.082 7.94808C239.968 8.75919 239.392 9.86663 239.797 10.4216C240.201 10.9765 241.433 10.7689 242.547 9.95774Z" fill="#FDA57D"/>
<path opacity="0.05" d="M216.454 44.6511L219.419 42.1129L219.451 46.1202L218.806 44.5777L216.454 44.6511Z" fill="black"/>
<path opacity="0.05" d="M220.521 47.0669L220.587 47.6872L234.218 48.7481L234.299 48.1687L220.521 47.0669Z" fill="black"/>
<path d="M199.336 29.0547L200.675 54.1919L205.363 72.2449C205.363 72.2449 209.055 82.6181 211.668 83.0261C214.282 83.4342 214.29 74.979 212.485 72.4653C210.68 69.9516 211.529 53.2206 211.529 53.2206L214.486 31.8785L199.336 29.0547Z" fill="#FDA57D"/>
<path d="M310.532 220.987H309.111V222.407H310.532V220.987Z" fill="#CCCCCC"/>
<path d="M308.188 223.125H311.699C311.952 223.125 312.201 223.175 312.434 223.271C312.667 223.367 312.878 223.509 313.057 223.687C313.235 223.865 313.376 224.076 313.473 224.309C313.569 224.542 313.619 224.791 313.619 225.043V236.869H306.268V225.043C306.268 224.791 306.318 224.542 306.414 224.309C306.511 224.076 306.652 223.865 306.83 223.687C307.009 223.509 307.22 223.367 307.453 223.271C307.686 223.175 307.936 223.125 308.188 223.125Z" fill="#535461"/>
<path d="M311.961 222.178H307.689V223.125H311.961V222.178Z" fill="#F7931A"/>
<path d="M313.619 228.569H306.268V231.409H313.619V228.569Z" fill="#F7931A"/>
<path d="M310.54 221.223V221.933C310.278 221.933 310.066 221.77 310.066 221.574C310.066 221.378 310.278 221.223 310.54 221.223Z" fill="#E6E6E6"/>
<path opacity="0.05" d="M200.839 16.8289C200.839 16.8289 197.719 25.2433 199.042 28.1161Z" fill="black"/>
<path opacity="0.05" d="M199.401 28.6221L199.393 30.1809L214.363 32.6946L214.543 31.4459L199.401 28.6221Z" fill="black"/>
<path d="M202.782 15.8005L199.336 29.0546L214.478 31.8785L218.48 15.1476L202.782 15.8005Z" fill="#F55F44"/>
<g opacity="0.5">
<path opacity="0.5" d="M202.268 61.7085L205.249 72.9876C205.249 72.9876 209.096 83.5974 211.783 83.9973C214.47 84.3972 214.51 75.7788 212.599 73.2161C211.595 71.8695 211.382 66.4992 211.399 61.7085H202.268Z" fill="url(#paint2_linear)"/>
</g>
<g opacity="0.5">
<path opacity="0.5" d="M232.821 61.2433H220.897L221.06 64.2304L226.026 82.8547C226.026 82.8547 229.938 93.5299 232.699 93.9542C235.459 94.3786 235.467 85.6704 233.515 83.0914C231.563 80.5124 232.543 63.2673 232.543 63.2673L232.821 61.2433Z" fill="url(#paint3_linear)"/>
</g>
<path d="M232.552 61.2433H221.281L221.436 64.1487L226.124 82.2426C226.124 82.2426 229.816 92.6158 232.429 93.0238C235.043 93.4319 235.051 84.9767 233.246 82.463C231.441 79.9493 232.307 63.1775 232.307 63.1775L232.552 61.2433Z" fill="#FDA57D"/>
<path opacity="0.2" d="M310 222.917L325.385 220L326 227L310 223.5V222.917Z" fill="#060716"/>
<g opacity="0.5">
<path opacity="0.5" d="M279.545 224.194L280.109 224.439L298.077 232.168L320.969 205.031C320.969 205.031 324.44 201.154 320.308 198.502C316.175 195.85 313.578 202.713 313.578 202.713L295.986 221.599L281.04 214.131L281.277 212.564L267.654 204.697C267.39 204.201 267.101 203.719 266.788 203.252L266.666 202.811L265.988 202.215C265.857 202.077 265.727 201.946 265.596 201.832L267.85 199.383C269.527 199.971 271.313 200.183 273.081 200.004C274.85 199.825 276.557 199.261 278.082 198.35C279.608 197.439 280.915 196.204 281.91 194.732C282.905 193.261 283.564 191.589 283.841 189.835C284.896 190.035 285.98 190.035 287.035 189.835C288.422 189.543 289.718 188.921 290.812 188.021C291.907 187.122 292.769 185.972 293.323 184.668C293.277 184.756 293.211 184.832 293.13 184.89C293.049 184.948 292.956 184.987 292.858 185.003C293.033 184.698 293.189 184.381 293.323 184.056C292.858 185.183 288.505 183.632 287.851 183.24C285.859 182.179 284.83 180.612 283.768 178.686C281.734 174.883 277.977 173.479 273.747 173.144C270.514 172.795 267.245 173.206 264.199 174.344C262.682 174.924 261.302 175.811 260.145 176.95C258.988 178.09 258.08 179.456 257.478 180.963C257.113 181.997 256.947 183.091 256.988 184.187C256.919 185.36 257.113 186.535 257.557 187.623C258.001 188.712 258.682 189.688 259.552 190.479C259.701 190.607 259.856 190.727 260.018 190.838C260.108 191.189 260.206 191.532 260.328 191.875L259.732 192.52L255.861 196.715L255.665 196.658L214.886 202.754V202.836C213.53 201.938 207.389 198.82 192.059 203.056C186.268 204.688 176.623 204.484 166.267 203.529C159.031 194.536 154.359 166.526 154.359 166.526L152.53 158.601L128.788 164.085C128.788 164.085 139.74 166.534 141.569 169.57C144.354 170.5 146.078 191.287 146.739 201.097C132.52 198.902 120.874 196.388 120.874 196.388L112.356 193.344L106.271 214.678C106.271 214.678 112.968 207.333 119.053 206.753C119.053 206.753 149.483 221.378 172.008 218.334C180.78 217.151 189.257 220.856 196.355 221.991C202.567 223.025 208.843 223.636 215.139 223.819L215.213 230.519C215.213 230.519 240.278 229.442 256.743 224.219C257.992 227.597 258.997 230.038 259.348 230.217L262.337 228.756L279.129 249.413L311.985 235.996C311.985 235.996 316.886 234.167 314.435 229.899C311.985 225.631 306.521 230.511 306.521 230.511L282.175 239.04L271.901 224.806L271.501 224.251L273.657 223.198C273.657 223.198 273.592 222.88 273.461 222.333L279.129 226.855L279.545 224.194Z" fill="url(#paint4_linear)"/>
</g>
<path d="M259.683 206.753L252.161 199.783L264.616 186.292L272.138 193.254L259.683 206.753Z" fill="#FDA57D"/>
<path opacity="0.05" d="M264.02 186.88L258.523 192.838C259.116 194.512 260.078 196.032 261.337 197.285C262.597 198.538 264.122 199.492 265.8 200.077L271.517 193.85L264.02 186.88Z" fill="black"/>
<path d="M265.637 218.424L295.798 231.393L318.086 204.998C318.086 204.998 321.459 201.228 317.441 198.649C313.423 196.07 310.907 202.73 310.907 202.73L293.756 221.076L271.746 210.091L265.637 218.424Z" fill="#FDA57D"/>
<path d="M264.052 203.415L279.447 212.303L277.373 226.234L262.868 214.678L264.052 203.415Z" fill="#6C63FF"/>
<path d="M270.268 200.159C276.808 200.159 282.11 194.849 282.11 188.3C282.11 181.751 276.808 176.442 270.268 176.442C263.727 176.442 258.425 181.751 258.425 188.3C258.425 194.849 263.727 200.159 270.268 200.159Z" fill="#FDA57D"/>
<path d="M260.532 198.673L254.611 196.894L214.919 202.828L215.213 229.76C215.213 229.76 263.464 227.687 268.789 215.241L265.237 202.828L260.532 198.673Z" fill="#6C63FF"/>
<path opacity="0.05" d="M263.334 215.037L277.373 226.235L277.969 221.493L264.052 208.157L263.334 215.037Z" fill="black"/>
<path d="M215.213 203.113C215.213 203.113 209.888 198.371 192.72 203.113C175.553 207.855 123.455 196.584 123.455 196.584L121.691 206.672C121.691 206.672 151.288 220.897 173.193 217.934C181.719 216.784 189.968 220.383 196.878 221.493C202.942 222.494 209.068 223.075 215.213 223.231V203.113Z" fill="#4D8AF0"/>
<path d="M123.455 196.592L115.157 193.63L109.236 214.376C109.236 214.376 115.769 207.259 121.666 206.672L123.455 196.592Z" fill="#535461"/>
<path d="M143.579 170.517L155.993 167.554C155.993 167.554 161.914 203.121 170.792 206.084H148.912C148.912 206.084 147.131 171.7 143.579 170.517Z" fill="#4D8AF0"/>
<path d="M155.993 167.554L154.22 159.85L131.132 165.187C131.132 165.187 141.749 167.562 143.562 170.525L155.993 167.554Z" fill="#535461"/>
<path opacity="0.05" d="M272.154 174.589C269.01 174.249 265.83 174.649 262.868 175.756C261.393 176.32 260.051 177.184 258.926 178.292C257.802 179.4 256.919 180.729 256.334 182.196C255.273 185.166 255.959 188.814 258.36 190.855C258.93 191.392 259.662 191.725 260.442 191.802C261.7 191.851 262.754 190.928 263.709 190.128C265.524 188.632 267.522 187.373 269.655 186.382C271.468 185.566 273.681 184.913 275.372 185.95C276.137 186.517 276.831 187.175 277.438 187.909C278.417 188.881 279.62 189.597 280.941 189.994C282.263 190.391 283.662 190.457 285.014 190.186C286.367 189.915 287.633 189.315 288.699 188.44C289.765 187.564 290.598 186.44 291.126 185.166C290.669 186.268 286.439 184.75 285.801 184.415C283.858 183.387 282.861 181.861 281.865 179.992C279.921 176.279 276.262 174.916 272.154 174.589Z" fill="black"/>
<path d="M272.154 174.001C269.01 173.661 265.83 174.061 262.868 175.169C261.393 175.733 260.051 176.596 258.926 177.704C257.802 178.813 256.919 180.142 256.334 181.608C255.273 184.579 255.959 188.227 258.36 190.267C258.93 190.805 259.662 191.138 260.442 191.214C261.7 191.263 262.754 190.341 263.709 189.541C265.524 188.044 267.522 186.785 269.655 185.795C271.468 184.979 273.681 184.326 275.372 185.362C276.137 185.93 276.831 186.587 277.438 187.321C278.417 188.293 279.62 189.009 280.941 189.406C282.263 189.803 283.662 189.869 285.014 189.598C286.367 189.327 287.633 188.728 288.699 187.852C289.765 186.977 290.598 185.852 291.126 184.579C290.669 185.68 286.439 184.162 285.801 183.828C283.858 182.799 282.861 181.273 281.865 179.404C279.921 175.691 276.262 174.32 272.154 174.001Z" fill="black"/>
<path d="M267.286 187.32C267.513 186.364 267.31 185.497 266.831 185.383C266.353 185.27 265.781 185.953 265.554 186.909C265.327 187.865 265.531 188.732 266.009 188.845C266.487 188.959 267.059 188.276 267.286 187.32Z" fill="#FDA57D"/>
<path opacity="0.05" d="M261.039 228.071L261.439 228.561L270.341 224.243L269.949 223.704L261.039 228.071Z" fill="black"/>
<path opacity="0.05" d="M279.219 213.829L277.765 223.566L278.304 223.876L279.447 213.935L279.219 213.829Z" fill="black"/>
<path d="M232.38 188.888H225.275V236.902H232.38V188.888Z" fill="#E0E0E0"/>
<path d="M218.954 56.73L212.219 54.4688L196.917 99.9826L203.653 102.244L218.954 56.73Z" fill="#E0E0E0"/>
<path d="M230.012 194.225H227.643V78.2843L229.979 78.4067L230.012 194.225Z" fill="#E0E0E0"/>
<path d="M256.653 222.676L277.373 248.164L309.339 235.106C309.339 235.106 314.076 233.327 311.708 229.181C309.339 225.035 304.014 229.777 304.014 229.777L280.329 238.077L265.923 218.122L256.653 222.676Z" fill="#FDA57D"/>
<path d="M248.069 201.636C248.069 201.636 256.947 228.903 258.131 229.491L272.015 222.676C272.015 222.676 268.071 204.289 263.677 201.457C259.283 198.625 248.665 199.261 248.069 201.636Z" fill="#6C63FF"/>
<path opacity="0.05" d="M250.601 209.283C250.601 209.283 250.136 219.713 253.1 221.525Z" fill="black"/>
<path d="M227.659 78.4068L216.977 62.6307L218.096 59.2927L229.979 78.4068H227.659Z" fill="#E0E0E0"/>
<path d="M281.952 192.617L280.407 191.592L277.818 195.487L279.362 196.513L281.952 192.617Z" fill="black"/>
<path d="M279.788 192.434L268.342 184.829L267.826 185.604L279.272 193.209L279.788 192.434Z" fill="black"/>
<g opacity="0.7">
<path opacity="0.7" d="M493.509 501.029H463.845V522.935H493.509V501.029Z" fill="url(#paint5_linear)"/>
<g opacity="0.1">
<path opacity="0.1" d="M463.845 506.832C463.845 506.832 474.912 508.122 478.677 508.122C482.442 508.122 493.509 506.832 493.509 506.832V501.356H463.845V506.832Z" fill="url(#paint6_linear)"/>
</g>
<path opacity="0.7" d="M493.509 506.506C493.509 506.506 482.442 507.795 478.677 507.795C474.912 507.795 463.845 506.506 463.845 506.506V484.919C463.845 480.988 465.408 477.218 468.189 474.439C470.971 471.659 474.743 470.098 478.677 470.098C482.611 470.098 486.383 471.659 489.164 474.439C491.946 477.218 493.509 480.988 493.509 484.919V506.506Z" fill="url(#paint7_linear)"/>
<path opacity="0.7" d="M478.677 474.293C477.737 474.293 476.835 473.919 476.171 473.255C475.506 472.591 475.132 471.69 475.132 470.751V462.695H482.222V470.751C482.222 471.69 481.848 472.591 481.183 473.255C480.519 473.919 479.617 474.293 478.677 474.293V474.293Z" fill="url(#paint8_linear)"/>
<path opacity="0.7" d="M474.487 515.206H463.845V587.377H474.487V515.206Z" fill="url(#paint9_linear)"/>
<path opacity="0.7" d="M493.509 515.206H482.867V587.377H493.509V515.206Z" fill="url(#paint10_linear)"/>
<g opacity="0.1">
<path opacity="0.1" d="M475.132 468.074C477.461 468.646 479.893 468.646 482.222 468.074V463.014H475.132V468.074Z" fill="url(#paint11_linear)"/>
</g>
<path opacity="0.7" d="M478.677 465.266C487.225 465.266 494.154 458.342 494.154 449.8C494.154 441.259 487.225 434.334 478.677 434.334C470.129 434.334 463.2 441.259 463.2 449.8C463.2 458.342 470.129 465.266 478.677 465.266Z" fill="url(#paint12_linear)"/>
<path opacity="0.7" d="M478.677 468.172C486.868 468.172 493.509 461.536 493.509 453.35C493.509 445.165 486.868 438.529 478.677 438.529C470.486 438.529 463.845 445.165 463.845 453.35C463.845 461.536 470.486 468.172 478.677 468.172Z" fill="url(#paint13_linear)"/>
<g opacity="0.1">
<path opacity="0.1" d="M469.693 445.915C470.502 446.363 471.394 446.64 472.315 446.732C476.113 447.249 479.981 446.815 483.569 445.467C483.905 446.194 484.397 446.839 485.009 447.356C485.622 447.874 486.34 448.251 487.114 448.462C488.663 448.871 490.265 449.05 491.867 448.992C492.219 449.031 492.575 448.963 492.888 448.796C493.598 448.315 493.255 447.213 492.839 446.462L490.772 442.716C490.223 441.576 489.483 440.538 488.584 439.647C487.334 438.662 485.847 438.023 484.271 437.795C480.603 437.065 476.816 437.191 473.205 438.162C469.358 439.182 464.401 442.716 469.693 445.915Z" fill="url(#paint14_linear)"/>
</g>
<path opacity="0.7" d="M469.693 445.597C470.502 446.044 471.394 446.322 472.315 446.413C476.113 446.931 479.981 446.496 483.569 445.148C483.905 445.876 484.397 446.521 485.009 447.038C485.622 447.556 486.34 447.933 487.114 448.144C488.663 448.553 490.265 448.732 491.867 448.674C492.219 448.713 492.575 448.644 492.888 448.478C493.598 447.997 493.255 446.895 492.839 446.144L490.772 442.398C490.223 441.258 489.483 440.22 488.584 439.329C487.334 438.344 485.847 437.705 484.271 437.477C480.603 436.747 476.816 436.873 473.205 437.844C469.358 438.864 464.401 442.39 469.693 445.597Z" fill="url(#paint15_linear)"/>
<path opacity="0.7" d="M493.345 455.766C494.058 455.766 494.636 454.685 494.636 453.35C494.636 452.016 494.058 450.935 493.345 450.935C492.633 450.935 492.055 452.016 492.055 453.35C492.055 454.685 492.633 455.766 493.345 455.766Z" fill="url(#paint16_linear)"/>
<path opacity="0.7" d="M464.009 455.766C464.721 455.766 465.299 454.685 465.299 453.35C465.299 452.016 464.721 450.935 464.009 450.935C463.296 450.935 462.718 452.016 462.718 453.35C462.718 454.685 463.296 455.766 464.009 455.766Z" fill="url(#paint17_linear)"/>
<path opacity="0.7" d="M518.337 437.885C520.294 437.885 521.881 436.299 521.881 434.342C521.881 432.386 520.294 430.8 518.337 430.8C516.379 430.8 514.792 432.386 514.792 434.342C514.792 436.299 516.379 437.885 518.337 437.885Z" fill="url(#paint18_linear)"/>
<path opacity="0.7" d="M479.501 487.096C479.501 487.83 479.422 488.466 479.264 489.002C479.107 489.539 478.891 489.983 478.619 490.334C478.347 490.686 478.027 490.948 477.66 491.122C477.297 491.291 476.908 491.376 476.494 491.376C476.079 491.376 475.691 491.291 475.328 491.122C474.965 490.948 474.647 490.686 474.374 490.334C474.102 489.983 473.887 489.539 473.729 489.002C473.575 488.466 473.498 487.83 473.498 487.096C473.498 486.362 473.575 485.727 473.729 485.19C473.887 484.653 474.102 484.209 474.374 483.858C474.647 483.507 474.965 483.246 475.328 483.076C475.691 482.903 476.079 482.816 476.494 482.816C476.908 482.816 477.297 482.903 477.66 483.076C478.027 483.246 478.347 483.507 478.619 483.858C478.891 484.209 479.107 484.653 479.264 485.19C479.422 485.727 479.501 486.362 479.501 487.096ZM478.909 487.096C478.909 486.417 478.844 485.837 478.714 485.356C478.584 484.874 478.408 484.481 478.187 484.178C477.97 483.87 477.713 483.645 477.417 483.503C477.125 483.361 476.817 483.29 476.494 483.29C476.17 483.29 475.862 483.361 475.57 483.503C475.278 483.645 475.022 483.87 474.801 484.178C474.58 484.481 474.404 484.874 474.274 485.356C474.144 485.837 474.078 486.417 474.078 487.096C474.078 487.779 474.144 488.361 474.274 488.843C474.404 489.32 474.58 489.713 474.801 490.021C475.022 490.324 475.278 490.547 475.57 490.69C475.862 490.828 476.17 490.897 476.494 490.897C476.817 490.897 477.125 490.828 477.417 490.69C477.713 490.547 477.97 490.324 478.187 490.021C478.408 489.713 478.584 489.32 478.714 488.843C478.844 488.361 478.909 487.779 478.909 487.096ZM479.501 501.096C479.501 501.83 479.422 502.466 479.264 503.002C479.107 503.539 478.891 503.983 478.619 504.334C478.347 504.686 478.027 504.948 477.66 505.122C477.297 505.291 476.908 505.376 476.494 505.376C476.079 505.376 475.691 505.291 475.328 505.122C474.965 504.948 474.647 504.686 474.374 504.334C474.102 503.983 473.887 503.539 473.729 503.002C473.575 502.466 473.498 501.83 473.498 501.096C473.498 500.362 473.575 499.727 473.729 499.19C473.887 498.653 474.102 498.209 474.374 497.858C474.647 497.507 474.965 497.246 475.328 497.076C475.691 496.903 476.079 496.816 476.494 496.816C476.908 496.816 477.297 496.903 477.66 497.076C478.027 497.246 478.347 497.507 478.619 497.858C478.891 498.209 479.107 498.653 479.264 499.19C479.422 499.727 479.501 500.362 479.501 501.096ZM478.909 501.096C478.909 500.417 478.844 499.837 478.714 499.356C478.584 498.874 478.408 498.481 478.187 498.178C477.97 497.87 477.713 497.645 477.417 497.503C477.125 497.361 476.817 497.29 476.494 497.29C476.17 497.29 475.862 497.361 475.57 497.503C475.278 497.645 475.022 497.87 474.801 498.178C474.58 498.481 474.404 498.874 474.274 499.356C474.144 499.837 474.078 500.417 474.078 501.096C474.078 501.779 474.144 502.361 474.274 502.843C474.404 503.32 474.58 503.713 474.801 504.021C475.022 504.324 475.278 504.547 475.57 504.69C475.862 504.828 476.17 504.897 476.494 504.897C476.817 504.897 477.125 504.828 477.417 504.69C477.713 504.547 477.97 504.324 478.187 504.021C478.408 503.713 478.584 503.32 478.714 502.843C478.844 502.361 478.909 501.779 478.909 501.096Z" fill="black"/>
<path opacity="0.7" d="M479.004 459.145C479.004 459.145 470.624 462.042 464.172 455.603C464.172 455.603 464.695 457.741 465.593 460.312C467.046 463.065 469.33 465.291 472.12 466.674C474.911 468.058 478.066 468.528 481.139 468.019C484.211 467.509 487.046 466.046 489.24 463.837C491.434 461.627 492.876 458.784 493.362 455.709C491.81 456.542 480.792 461.838 479.004 459.145ZM478.685 463.014C477.052 463.014 475.786 461.789 475.786 461.079C475.786 460.369 477.084 460.435 478.685 460.435C480.286 460.435 481.584 460.369 481.584 461.079C481.584 461.789 480.278 463.014 478.677 463.014H478.685Z" fill="url(#paint19_linear)"/>
<path opacity="0.7" d="M486.558 472.375C486.558 472.375 503.824 462.695 514.465 434.343L519.627 437.566C519.627 437.566 511.084 473.697 489.646 482.03L486.558 472.375Z" fill="url(#paint20_linear)"/>
<path opacity="0.7" d="M439.025 437.885C440.983 437.885 442.57 436.299 442.57 434.342C442.57 432.386 440.983 430.8 439.025 430.8C437.068 430.8 435.481 432.386 435.481 434.342C435.481 436.299 437.068 437.885 439.025 437.885Z" fill="url(#paint21_linear)"/>
<path opacity="0.7" d="M470.796 472.375C470.796 472.375 453.53 462.695 442.889 434.343L437.76 437.558C437.76 437.558 446.302 473.689 467.741 482.022L470.796 472.375Z" fill="url(#paint22_linear)"/>
<path opacity="0.7" d="M473.842 589.956H464.491V589.475C464.491 588.237 464.983 587.049 465.859 586.174C466.735 585.298 467.923 584.806 469.162 584.806V584.806C470.401 584.806 471.59 585.298 472.466 586.174C473.342 587.049 473.834 588.237 473.834 589.475L473.842 589.956Z" fill="url(#paint23_linear)"/>
<path opacity="0.7" d="M492.863 589.956H483.496V589.475C483.496 588.237 483.988 587.049 484.864 586.174C485.74 585.298 486.928 584.806 488.167 584.806V584.806C489.406 584.806 490.594 585.298 491.471 586.174C492.347 587.049 492.839 588.237 492.839 589.475L492.863 589.956Z" fill="url(#paint24_linear)"/>
</g>
<path d="M493.084 501.299H464.278V522.576H493.084V501.299Z" fill="#4D8AF0"/>
<path opacity="0.1" d="M464.278 506.93C464.278 506.93 475.026 508.179 478.677 508.179C482.328 508.179 493.076 506.93 493.076 506.93V501.617H464.278V506.93Z" fill="black"/>
<path d="M493.076 506.62C493.076 506.62 482.328 507.869 478.677 507.869C475.026 507.869 464.278 506.62 464.278 506.62V485.662C464.278 481.845 465.795 478.186 468.496 475.487C471.196 472.789 474.858 471.273 478.677 471.273C482.496 471.273 486.158 472.789 488.858 475.487C491.559 478.186 493.076 481.845 493.076 485.662V506.62Z" fill="#6C63FF"/>
<path d="M475.23 464.075H482.115V471.893C482.115 472.807 481.752 473.683 481.106 474.329C480.46 474.974 479.583 475.337 478.669 475.337V475.337C477.755 475.337 476.878 474.974 476.232 474.329C475.585 473.683 475.222 472.807 475.222 471.893V464.075H475.23Z" fill="#FDB797"/>
<path d="M474.61 515.067H464.278V585.141H474.61V515.067Z" fill="#4D8AF0"/>
<path d="M493.076 515.067H482.744V585.141H493.076V515.067Z" fill="#4D8AF0"/>
<path opacity="0.1" d="M475.239 469.29C477.5 469.846 479.862 469.846 482.123 469.29V464.393H475.239V469.29Z" fill="black"/>
<path d="M478.677 466.58C486.976 466.58 493.705 459.857 493.705 451.563C493.705 443.269 486.976 436.546 478.677 436.546C470.377 436.546 463.649 443.269 463.649 451.563C463.649 459.857 470.377 466.58 478.677 466.58Z" fill="#814E4D"/>
<path d="M478.677 469.388C486.629 469.388 493.076 462.946 493.076 454.999C493.076 447.052 486.629 440.61 478.677 440.61C470.725 440.61 464.278 447.052 464.278 454.999C464.278 462.946 470.725 469.388 478.677 469.388Z" fill="#FDB797"/>
<path opacity="0.1" d="M469.954 447.784C470.743 448.21 471.61 448.471 472.503 448.552C476.19 449.056 479.946 448.635 483.43 447.327C483.757 448.035 484.235 448.663 484.83 449.166C485.426 449.669 486.124 450.036 486.877 450.241C488.381 450.638 489.936 450.812 491.491 450.755C491.835 450.795 492.182 450.729 492.488 450.567C493.182 450.102 492.847 449.033 492.439 448.299L490.43 444.667C489.897 443.56 489.179 442.553 488.306 441.688C487.091 440.732 485.646 440.113 484.116 439.892C480.554 439.184 476.876 439.307 473.368 440.251C469.611 441.247 464.809 444.675 469.954 447.784Z" fill="black"/>
<path d="M469.954 447.474C470.743 447.9 471.61 448.161 472.503 448.241C476.19 448.745 479.946 448.325 483.43 447.017C483.757 447.725 484.235 448.352 484.83 448.856C485.426 449.359 486.124 449.726 486.877 449.931C488.381 450.328 489.936 450.501 491.491 450.445C491.835 450.485 492.182 450.419 492.488 450.257C493.182 449.792 492.847 448.723 492.439 447.988L490.43 444.357C489.897 443.25 489.179 442.242 488.306 441.378C487.091 440.422 485.646 439.803 484.116 439.582C480.554 438.874 476.876 438.997 473.368 439.941C469.611 440.937 464.809 444.365 469.954 447.474Z" fill="#814E4D"/>
<path d="M492.92 457.341C493.611 457.341 494.17 456.293 494.17 454.999C494.17 453.705 493.611 452.657 492.92 452.657C492.23 452.657 491.671 453.705 491.671 454.999C491.671 456.293 492.23 457.341 492.92 457.341Z" fill="#FDB797"/>
<path d="M464.433 457.341C465.124 457.341 465.683 456.293 465.683 454.999C465.683 453.705 465.124 452.657 464.433 452.657C463.743 452.657 463.184 453.705 463.184 454.999C463.184 456.293 463.743 457.341 464.433 457.341Z" fill="#FDB797"/>
<path d="M517.185 439.99C519.089 439.99 520.632 438.448 520.632 436.546C520.632 434.644 519.089 433.102 517.185 433.102C515.282 433.102 513.739 434.644 513.739 436.546C513.739 438.448 515.282 439.99 517.185 439.99Z" fill="#FDB797"/>
<path d="M478.996 460.63C478.996 460.63 470.828 463.446 464.597 457.186C464.597 457.186 465.103 459.259 465.977 461.765C467.389 464.435 469.607 466.594 472.315 467.934C475.023 469.275 478.085 469.731 481.066 469.236C484.048 468.741 486.798 467.321 488.927 465.178C491.056 463.034 492.456 460.275 492.929 457.292C491.434 458.109 480.735 463.242 478.996 460.63ZM478.685 464.385C477.125 464.385 475.867 463.201 475.867 462.508C475.867 461.814 477.125 461.879 478.685 461.879C480.245 461.879 481.503 461.814 481.503 462.508C481.503 463.201 480.229 464.385 478.677 464.385H478.685Z" fill="#814E4D"/>
<path d="M486.33 473.477C486.33 473.477 503.097 464.075 513.428 436.546L518.435 439.672C518.435 439.672 510.137 474.766 489.319 482.846L486.33 473.477Z" fill="#6C63FF"/>
<path d="M440.169 439.99C442.072 439.99 443.615 438.448 443.615 436.546C443.615 434.644 442.072 433.102 440.169 433.102C438.265 433.102 436.722 434.644 436.722 436.546C436.722 438.448 438.265 439.99 440.169 439.99Z" fill="#FDB797"/>
<path d="M471.024 473.477C471.024 473.477 454.257 464.075 443.926 436.546L438.919 439.672C438.919 439.672 447.217 474.766 468.035 482.846L471.024 473.477Z" fill="#6C63FF"/>
<path d="M469.44 582.644C470.644 582.644 471.799 583.122 472.651 583.973C473.502 584.824 473.981 585.978 473.981 587.181V587.622H464.907V587.157C464.914 585.959 465.394 584.812 466.243 583.967C467.092 583.121 468.241 582.646 469.44 582.644V582.644Z" fill="#333333"/>
<path d="M487.914 582.644C489.118 582.644 490.273 583.122 491.125 583.973C491.976 584.824 492.455 585.978 492.455 587.181V587.622H483.373V587.157C483.38 585.958 483.861 584.81 484.712 583.964C485.563 583.118 486.714 582.644 487.914 582.644V582.644Z" fill="#333333"/>
</g>
<defs>
<linearGradient id="paint0_linear" x1="108.729" y1="111.338" x2="108.729" y2="91.8568" gradientUnits="userSpaceOnUse">
<stop stop-color="#808080" stop-opacity="0.25"/>
<stop offset="0.54" stop-color="#808080" stop-opacity="0.12"/>
<stop offset="1" stop-color="#808080" stop-opacity="0.1"/>
</linearGradient>
<linearGradient id="paint1_linear" x1="74814.5" y1="37255.7" x2="74814.5" y2="12218.9" gradientUnits="userSpaceOnUse">
<stop stop-color="#808080" stop-opacity="0.25"/>
<stop offset="0.54" stop-color="#808080" stop-opacity="0.12"/>
<stop offset="1" stop-color="#808080" stop-opacity="0.1"/>
</linearGradient>
<linearGradient id="paint2_linear" x1="6194.78" y1="4263.68" x2="6194.78" y2="3654.38" gradientUnits="userSpaceOnUse">
<stop stop-color="#808080" stop-opacity="0.25"/>
<stop offset="0.54" stop-color="#808080" stop-opacity="0.12"/>
<stop offset="1" stop-color="#808080" stop-opacity="0.1"/>
</linearGradient>
<linearGradient id="paint3_linear" x1="7748.44" y1="6626.4" x2="7748.44" y2="5314.41" gradientUnits="userSpaceOnUse">
<stop stop-color="#808080" stop-opacity="0.25"/>
<stop offset="0.54" stop-color="#808080" stop-opacity="0.12"/>
<stop offset="1" stop-color="#808080" stop-opacity="0.1"/>
</linearGradient>
<linearGradient id="paint4_linear" x1="112765" y1="35672.5" x2="112765" y2="25568.7" gradientUnits="userSpaceOnUse">
<stop stop-color="#808080" stop-opacity="0.25"/>
<stop offset="0.54" stop-color="#808080" stop-opacity="0.12"/>
<stop offset="1" stop-color="#808080" stop-opacity="0.1"/>
</linearGradient>
<linearGradient id="paint5_linear" x1="17310.7" y1="14242.6" x2="18388.1" y2="14242.6" gradientUnits="userSpaceOnUse">
<stop stop-color="#808080" stop-opacity="0.25"/>
<stop offset="0.54" stop-color="#808080" stop-opacity="0.12"/>
<stop offset="1" stop-color="#808080" stop-opacity="0.1"/>
</linearGradient>
<linearGradient id="paint6_linear" x1="24993.5" y1="5263.97" x2="26070.8" y2="5263.97" gradientUnits="userSpaceOnUse">
<stop stop-color="#808080" stop-opacity="0.25"/>
<stop offset="0.54" stop-color="#808080" stop-opacity="0.12"/>
<stop offset="1" stop-color="#808080" stop-opacity="0.1"/>
</linearGradient>
<linearGradient id="paint7_linear" x1="24993.5" y1="26277.1" x2="26070.8" y2="26277.1" gradientUnits="userSpaceOnUse">
<stop stop-color="#808080" stop-opacity="0.25"/>
<stop offset="0.54" stop-color="#808080" stop-opacity="0.12"/>
<stop offset="1" stop-color="#808080" stop-opacity="0.1"/>
</linearGradient>
<linearGradient id="paint8_linear" x1="6435.35" y1="8111.3" x2="6496.88" y2="8111.3" gradientUnits="userSpaceOnUse">
<stop stop-color="#808080" stop-opacity="0.25"/>
<stop offset="0.54" stop-color="#808080" stop-opacity="0.12"/>
<stop offset="1" stop-color="#808080" stop-opacity="0.1"/>
</linearGradient>
<linearGradient id="paint9_linear" x1="6507.74" y1="49265.5" x2="6646.4" y2="49265.5" gradientUnits="userSpaceOnUse">
<stop stop-color="#808080" stop-opacity="0.25"/>
<stop offset="0.54" stop-color="#808080" stop-opacity="0.12"/>
<stop offset="1" stop-color="#808080" stop-opacity="0.1"/>
</linearGradient>
<linearGradient id="paint10_linear" x1="6774.63" y1="49265.5" x2="6913.29" y2="49265.5" gradientUnits="userSpaceOnUse">
<stop stop-color="#808080" stop-opacity="0.25"/>
<stop offset="0.54" stop-color="#808080" stop-opacity="0.12"/>
<stop offset="1" stop-color="#808080" stop-opacity="0.1"/>
</linearGradient>
<linearGradient id="paint11_linear" x1="6435.35" y1="4064.9" x2="6496.88" y2="4064.9" gradientUnits="userSpaceOnUse">
<stop stop-color="#808080" stop-opacity="0.25"/>
<stop offset="0.54" stop-color="#808080" stop-opacity="0.12"/>
<stop offset="1" stop-color="#808080" stop-opacity="0.1"/>
</linearGradient>
<linearGradient id="paint12_linear" x1="18018.5" y1="17481.8" x2="19191.6" y2="17481.8" gradientUnits="userSpaceOnUse">
<stop stop-color="#808080" stop-opacity="0.25"/>
<stop offset="0.54" stop-color="#808080" stop-opacity="0.12"/>
<stop offset="1" stop-color="#808080" stop-opacity="0.1"/>
</linearGradient>
<linearGradient id="paint13_linear" x1="17310.7" y1="16904.2" x2="18388.1" y2="16904.2" gradientUnits="userSpaceOnUse">
<stop stop-color="#808080" stop-opacity="0.25"/>
<stop offset="0.54" stop-color="#808080" stop-opacity="0.12"/>
<stop offset="1" stop-color="#808080" stop-opacity="0.1"/>
</linearGradient>
<linearGradient id="paint14_linear" x1="22006.2" y1="7774.93" x2="22828.3" y2="7774.93" gradientUnits="userSpaceOnUse">
<stop stop-color="#808080" stop-opacity="0.25"/>
<stop offset="0.54" stop-color="#808080" stop-opacity="0.12"/>
<stop offset="1" stop-color="#808080" stop-opacity="0.1"/>
</linearGradient>
<linearGradient id="paint15_linear" x1="22006.2" y1="7769.96" x2="22828.3" y2="7769.96" gradientUnits="userSpaceOnUse">
<stop stop-color="#808080" stop-opacity="0.25"/>
<stop offset="0.54" stop-color="#808080" stop-opacity="0.12"/>
<stop offset="1" stop-color="#808080" stop-opacity="0.1"/>
</linearGradient>
<linearGradient id="paint16_linear" x1="2046.96" y1="3134.76" x2="2055.12" y2="3134.76" gradientUnits="userSpaceOnUse">
<stop stop-color="#808080" stop-opacity="0.25"/>
<stop offset="0.54" stop-color="#808080" stop-opacity="0.12"/>
<stop offset="1" stop-color="#808080" stop-opacity="0.1"/>
</linearGradient>
<linearGradient id="paint17_linear" x1="1924.89" y1="3134.76" x2="1933.04" y2="3134.76" gradientUnits="userSpaceOnUse">
<stop stop-color="#808080" stop-opacity="0.25"/>
<stop offset="0.54" stop-color="#808080" stop-opacity="0.12"/>
<stop offset="1" stop-color="#808080" stop-opacity="0.1"/>
</linearGradient>
<linearGradient id="paint18_linear" x1="4983.09" y1="4200.92" x2="5044.7" y2="4200.92" gradientUnits="userSpaceOnUse">
<stop stop-color="#808080" stop-opacity="0.25"/>
<stop offset="0.54" stop-color="#808080" stop-opacity="0.12"/>
<stop offset="1" stop-color="#808080" stop-opacity="0.1"/>
</linearGradient>
<linearGradient id="paint19_linear" x1="24613.7" y1="8673.5" x2="25655.5" y2="8673.5" gradientUnits="userSpaceOnUse">
<stop stop-color="#808080" stop-opacity="0.25"/>
<stop offset="0.54" stop-color="#808080" stop-opacity="0.12"/>
<stop offset="1" stop-color="#808080" stop-opacity="0.1"/>
</linearGradient>
<linearGradient id="paint20_linear" x1="28752.1" y1="31282.2" x2="30091.1" y2="31282.2" gradientUnits="userSpaceOnUse">
<stop stop-color="#808080" stop-opacity="0.25"/>
<stop offset="0.54" stop-color="#808080" stop-opacity="0.12"/>
<stop offset="1" stop-color="#808080" stop-opacity="0.1"/>
</linearGradient>
<linearGradient id="paint21_linear" x1="4215.4" y1="4200.92" x2="4277" y2="4200.92" gradientUnits="userSpaceOnUse">
<stop stop-color="#808080" stop-opacity="0.25"/>
<stop offset="0.54" stop-color="#808080" stop-opacity="0.12"/>
<stop offset="1" stop-color="#808080" stop-opacity="0.1"/>
</linearGradient>
<linearGradient id="paint22_linear" x1="26700.5" y1="31277" x2="28037.8" y2="31277" gradientUnits="userSpaceOnUse">
<stop stop-color="#808080" stop-opacity="0.25"/>
<stop offset="0.54" stop-color="#808080" stop-opacity="0.12"/>
<stop offset="1" stop-color="#808080" stop-opacity="0.1"/>
</linearGradient>
<linearGradient id="paint23_linear" x1="8204.91" y1="4731.36" x2="8311.98" y2="4731.36" gradientUnits="userSpaceOnUse">
<stop stop-color="#808080" stop-opacity="0.25"/>
<stop offset="0.54" stop-color="#808080" stop-opacity="0.12"/>
<stop offset="1" stop-color="#808080" stop-opacity="0.1"/>
</linearGradient>
<linearGradient id="paint24_linear" x1="8455.58" y1="4731.36" x2="8562.84" y2="4731.36" gradientUnits="userSpaceOnUse">
<stop stop-color="#808080" stop-opacity="0.25"/>
<stop offset="0.54" stop-color="#808080" stop-opacity="0.12"/>
<stop offset="1" stop-color="#808080" stop-opacity="0.1"/>
</linearGradient>
<clipPath id="clip0">
<rect width="557" height="595" fill="white"/>
</clipPath>
</defs>
</svg>
