<svg width="754" height="511" viewBox="0 0 754 511" fill="none" xmlns="http://www.w3.org/2000/svg">
<path d="M89.3352 117.016H87.3363V224.031H89.3352V117.016Z" fill="#3F3D56"/>
<path d="M89.3352 255.886H87.3363V350.049H89.3352V255.886Z" fill="#3F3D56"/>
<path d="M239.26 365.051H84.3378V367.051H239.26V365.051Z" fill="#3F3D56"/>
<path d="M20.37 392.054H18.371V477.066H20.37V392.054Z" fill="#3F3D56"/>
<path d="M271.244 492.068H36.3619V494.069H271.244V492.068Z" fill="#3F3D56"/>
<path d="M467.145 49.0066H465.146V150.021H467.145V49.0066Z" fill="#3F3D56"/>
<path d="M450.153 166.023H303.193V168.023H450.153V166.023Z" fill="#3F3D56"/>
<path d="M288.235 182.025H286.236V317.044H288.235V182.025Z" fill="#3F3D56"/>
<path d="M88.3357 257.036C84.9751 257.036 81.69 256.038 78.8958 254.17C76.1016 252.302 73.9237 249.647 72.6377 246.54C71.3516 243.433 71.0151 240.014 71.6708 236.716C72.3264 233.418 73.9447 230.389 76.321 228.011C78.6973 225.633 81.7248 224.014 85.0208 223.358C88.3169 222.702 91.7333 223.038 94.8381 224.325C97.9429 225.612 100.597 227.791 102.464 230.587C104.331 233.383 105.327 236.67 105.327 240.033C105.322 244.541 103.53 248.863 100.345 252.05C97.1595 255.238 92.8406 257.031 88.3357 257.036V257.036ZM88.3357 225.031C85.3705 225.031 82.4719 225.911 80.0064 227.559C77.5409 229.208 75.6192 231.551 74.4845 234.292C73.3498 237.033 73.0529 240.05 73.6314 242.96C74.2098 245.87 75.6377 248.543 77.7344 250.641C79.8312 252.739 82.5026 254.168 85.4108 254.747C88.3191 255.326 91.3336 255.029 94.0731 253.893C96.8126 252.758 99.1541 250.835 100.802 248.368C102.449 245.901 103.328 243 103.328 240.033C103.324 236.056 101.743 232.243 98.9321 229.43C96.1214 226.618 92.3106 225.036 88.3357 225.031V225.031Z" fill="#3F3D56"/>
<path d="M20.37 510.071C17.0094 510.071 13.7243 509.074 10.9301 507.206C8.13583 505.337 5.95799 502.682 4.67195 499.575C3.38591 496.468 3.04941 493.05 3.70503 489.752C4.36065 486.453 5.97895 483.424 8.35524 481.046C10.7315 478.668 13.7591 477.049 17.0551 476.393C20.3511 475.737 23.7676 476.074 26.8723 477.36C29.9771 478.647 32.6308 480.826 34.4979 483.623C36.3649 486.419 37.3614 489.706 37.3614 493.069C37.3564 497.576 35.5646 501.898 32.3792 505.085C29.1938 508.273 24.8749 510.066 20.37 510.071V510.071ZM20.37 478.066C17.4048 478.066 14.5061 478.946 12.0406 480.595C9.57515 482.243 7.65351 484.586 6.51877 487.327C5.38402 490.069 5.08713 493.085 5.66562 495.995C6.24411 498.905 7.67199 501.579 9.76872 503.677C11.8654 505.775 14.5369 507.204 17.4451 507.782C20.3534 508.361 23.3678 508.064 26.1073 506.929C28.8469 505.793 31.1884 503.87 32.8358 501.403C34.4832 498.936 35.3624 496.036 35.3624 493.069C35.358 489.091 33.777 485.278 30.9664 482.465C28.1557 479.653 24.3449 478.071 20.37 478.066V478.066Z" fill="#3F3D56"/>
<path d="M89.3349 382.053C98.167 382.053 105.327 374.889 105.327 366.051C105.327 357.213 98.167 350.049 89.3349 350.049C80.5028 350.049 73.343 357.213 73.343 366.051C73.343 374.889 80.5028 382.053 89.3349 382.053Z" fill="#6C63FF"/>
<path d="M668.044 239.033H502.127V241.033H668.044V239.033Z" fill="#3F3D56"/>
<path d="M487.135 255.886H485.136V350.049H487.135V255.886Z" fill="#3F3D56"/>
<path d="M469.144 365.051H336.211V367.051H469.144V365.051Z" fill="#3F3D56"/>
<path d="M708.023 374.052H570.093V376.052H708.023V374.052Z" fill="#3F3D56"/>
<path d="M556.1 392.054H554.101V477.066H556.1V392.054Z" fill="#3F3D56"/>
<path d="M538.109 492.068H303.227V494.069H538.109V492.068Z" fill="#3F3D56"/>
<path d="M288.235 415.058H286.236V477.066H288.235V415.058Z" fill="#3F3D56"/>
<path d="M486.135 256.036C494.967 256.036 502.127 248.871 502.127 240.033C502.127 231.196 494.967 224.031 486.135 224.031C477.303 224.031 470.143 231.196 470.143 240.033C470.143 248.871 477.303 256.036 486.135 256.036Z" fill="#6C63FF"/>
<path d="M466.145 183.025C462.785 183.025 459.5 182.028 456.705 180.16C453.911 178.292 451.733 175.636 450.447 172.53C449.161 169.423 448.825 166.004 449.48 162.706C450.136 159.408 451.754 156.378 454.131 154.001C456.507 151.623 459.534 150.003 462.83 149.347C466.127 148.691 469.543 149.028 472.648 150.315C475.752 151.602 478.406 153.781 480.273 156.577C482.14 159.373 483.137 162.66 483.137 166.023C483.132 170.531 481.34 174.852 478.155 178.04C474.969 181.227 470.65 183.02 466.145 183.025V183.025ZM466.145 151.021C463.18 151.021 460.281 151.901 457.816 153.549C455.351 155.198 453.429 157.541 452.294 160.282C451.159 163.023 450.862 166.04 451.441 168.95C452.019 171.86 453.447 174.533 455.544 176.631C457.641 178.729 460.312 180.158 463.22 180.737C466.129 181.316 469.143 181.019 471.883 179.883C474.622 178.748 476.964 176.825 478.611 174.358C480.258 171.891 481.138 168.99 481.138 166.023C481.133 162.046 479.552 158.232 476.742 155.42C473.931 152.607 470.12 151.025 466.145 151.021V151.021Z" fill="#3F3D56"/>
<path d="M287.235 183.025C283.875 183.025 280.59 182.028 277.796 180.16C275.001 178.292 272.824 175.636 271.537 172.53C270.251 169.423 269.915 166.004 270.571 162.706C271.226 159.408 272.844 156.378 275.221 154.001C277.597 151.623 280.625 150.003 283.921 149.347C287.217 148.691 290.633 149.028 293.738 150.315C296.843 151.602 299.496 153.781 301.363 156.577C303.23 159.373 304.227 162.66 304.227 166.023C304.222 170.531 302.43 174.852 299.245 178.04C296.059 181.227 291.74 183.02 287.235 183.025V183.025ZM287.235 151.021C284.27 151.021 281.372 151.901 278.906 153.549C276.441 155.198 274.519 157.541 273.384 160.282C272.25 163.023 271.953 166.04 272.531 168.95C273.11 171.86 274.538 174.533 276.634 176.631C278.731 178.729 281.402 180.158 284.311 180.737C287.219 181.316 290.233 181.019 292.973 179.883C295.712 178.748 298.054 176.825 299.701 174.358C301.349 171.891 302.228 168.99 302.228 166.023C302.224 162.046 300.643 158.232 297.832 155.42C295.021 152.607 291.21 151.025 287.235 151.021V151.021Z" fill="#3F3D56"/>
<path d="M554.101 393.055C550.74 393.055 547.455 392.057 544.661 390.189C541.867 388.321 539.689 385.665 538.403 382.559C537.117 379.452 536.78 376.033 537.436 372.735C538.092 369.437 539.71 366.408 542.086 364.03C544.463 361.652 547.49 360.033 550.786 359.377C554.082 358.72 557.499 359.057 560.603 360.344C563.708 361.631 566.362 363.81 568.229 366.606C570.096 369.402 571.092 372.689 571.092 376.052C571.087 380.56 569.296 384.882 566.11 388.069C562.925 391.257 558.606 393.05 554.101 393.055V393.055ZM554.101 361.05C551.136 361.05 548.237 361.93 545.772 363.578C543.306 365.227 541.385 367.57 540.25 370.311C539.115 373.052 538.818 376.069 539.397 378.979C539.975 381.889 541.403 384.562 543.5 386.66C545.597 388.758 548.268 390.187 551.176 390.766C554.084 391.345 557.099 391.048 559.838 389.912C562.578 388.777 564.919 386.854 566.567 384.387C568.214 381.92 569.093 379.019 569.093 376.052C569.089 372.075 567.508 368.261 564.697 365.449C561.887 362.637 558.076 361.055 554.101 361.05V361.05Z" fill="#3F3D56"/>
<path d="M554.101 509.071C562.933 509.071 570.093 501.906 570.093 493.069C570.093 484.231 562.933 477.066 554.101 477.066C545.269 477.066 538.109 484.231 538.109 493.069C538.109 501.906 545.269 509.071 554.101 509.071Z" fill="#6C63FF"/>
<path d="M287.235 510.071C283.875 510.071 280.59 509.074 277.796 507.206C275.001 505.337 272.824 502.682 271.537 499.575C270.251 496.468 269.915 493.05 270.571 489.752C271.226 486.453 272.844 483.424 275.221 481.046C277.597 478.668 280.625 477.049 283.921 476.393C287.217 475.737 290.633 476.074 293.738 477.36C296.843 478.647 299.496 480.826 301.363 483.623C303.23 486.419 304.227 489.706 304.227 493.069C304.222 497.576 302.43 501.898 299.245 505.085C296.059 508.273 291.74 510.066 287.235 510.071V510.071ZM287.235 478.066C284.27 478.066 281.372 478.946 278.906 480.595C276.441 482.243 274.519 484.586 273.384 487.327C272.25 490.069 271.953 493.085 272.531 495.995C273.11 498.905 274.538 501.579 276.634 503.677C278.731 505.775 281.402 507.204 284.311 507.782C287.219 508.361 290.233 508.064 292.973 506.929C295.712 505.793 298.054 503.87 299.701 501.403C301.349 498.936 302.228 496.036 302.228 493.069C302.224 489.091 300.643 485.278 297.832 482.465C295.021 479.653 291.21 478.071 287.235 478.066V478.066Z" fill="#3F3D56"/>
<path d="M485.136 383.053C481.775 383.053 478.49 382.056 475.696 380.188C472.902 378.32 470.724 375.664 469.438 372.557C468.152 369.451 467.815 366.032 468.471 362.734C469.126 359.436 470.745 356.406 473.121 354.028C475.497 351.651 478.525 350.031 481.821 349.375C485.117 348.719 488.533 349.056 491.638 350.343C494.743 351.63 497.397 353.809 499.264 356.605C501.131 359.401 502.127 362.688 502.127 366.051C502.122 370.559 500.33 374.88 497.145 378.068C493.96 381.255 489.641 383.048 485.136 383.053V383.053ZM485.136 351.049C482.171 351.049 479.272 351.929 476.806 353.577C474.341 355.226 472.419 357.569 471.285 360.31C470.15 363.051 469.853 366.067 470.431 368.978C471.01 371.888 472.438 374.561 474.535 376.659C476.631 378.757 479.303 380.186 482.211 380.765C485.119 381.344 488.134 381.046 490.873 379.911C493.613 378.776 495.954 376.853 497.602 374.386C499.249 371.918 500.128 369.018 500.128 366.051C500.124 362.073 498.543 358.26 495.732 355.448C492.922 352.635 489.111 351.053 485.136 351.049V351.049Z" fill="#3F3D56"/>
<path d="M20.3697 342.048C16.416 342.048 12.5512 343.221 9.26389 345.419C5.97657 347.617 3.41438 350.741 1.90139 354.396C0.388405 358.051 -0.007439 362.073 0.763876 365.953C1.53519 369.833 3.43905 373.397 6.23469 376.195C9.03033 378.992 12.5922 380.897 16.4698 381.669C20.3475 382.441 24.3668 382.045 28.0195 380.531C31.6722 379.017 34.7942 376.453 36.9907 373.163C39.1872 369.874 40.3596 366.007 40.3596 362.05C40.3441 356.75 38.233 351.671 34.4876 347.923C30.7421 344.176 25.6666 342.063 20.3697 342.048V342.048ZM20.3697 348.048C21.5558 348.048 22.7152 348.4 23.7014 349.06C24.6876 349.719 25.4563 350.656 25.9102 351.753C26.3641 352.849 26.4828 354.056 26.2514 355.22C26.02 356.384 25.4489 357.453 24.6102 358.293C23.7715 359.132 22.7029 359.703 21.5396 359.935C20.3763 360.166 19.1705 360.048 18.0747 359.593C16.9789 359.139 16.0423 358.37 15.3834 357.383C14.7244 356.396 14.3727 355.236 14.3727 354.049C14.378 352.459 15.0115 350.936 16.135 349.812C17.2585 348.688 18.7808 348.054 20.3697 348.048V348.048ZM20.3697 376.937C18.0006 376.926 15.67 376.337 13.58 375.221C11.4899 374.105 9.7035 372.496 8.37573 370.532C8.47184 366.532 16.3717 364.33 20.3697 364.33C24.3677 364.33 32.2675 366.532 32.3636 370.532C31.0344 372.494 29.2476 374.103 27.1579 375.218C25.0682 376.334 22.7383 376.924 20.3697 376.937V376.937Z" fill="#3F3D56"/>
<path d="M89.3349 69.0095C85.3813 69.0095 81.5165 70.1827 78.2292 72.3806C74.9418 74.5785 72.3797 77.7025 70.8667 81.3576C69.3537 85.0126 68.9578 89.0345 69.7291 92.9147C70.5005 96.7948 72.4043 100.359 75.2 103.156C77.9956 105.954 81.5575 107.859 85.4351 108.631C89.3128 109.403 93.3321 109.006 96.9847 107.492C100.637 105.979 103.759 103.415 105.956 100.125C108.152 96.8358 109.325 92.9685 109.325 89.0123C109.309 83.712 107.198 78.6332 103.453 74.8853C99.7073 71.1374 94.6318 69.025 89.3349 69.0095V69.0095ZM89.3349 75.0104C90.521 75.0104 91.6805 75.3623 92.6667 76.0217C93.6529 76.6811 94.4215 77.6183 94.8754 78.7148C95.3293 79.8113 95.4481 81.0179 95.2167 82.1819C94.9853 83.3459 94.4141 84.4152 93.5755 85.2544C92.7368 86.0937 91.6682 86.6652 90.5049 86.8967C89.3416 87.1283 88.1358 87.0094 87.04 86.5552C85.9442 86.101 85.0076 85.3319 84.3486 84.3451C83.6897 83.3582 83.338 82.198 83.338 81.0112C83.3433 79.4213 83.9768 77.8981 85.1003 76.7738C86.2238 75.6496 87.7461 75.0157 89.3349 75.0104V75.0104ZM89.3349 103.899C86.9659 103.888 84.6353 103.299 82.5452 102.183C80.4552 101.067 78.6688 99.4575 77.341 97.4943C77.4371 93.4937 85.337 91.2915 89.3349 91.2915C93.3329 91.2915 101.233 93.4937 101.329 97.4943C99.9996 99.456 98.2129 101.064 96.1232 102.18C94.0335 103.296 91.7036 103.886 89.3349 103.899V103.899Z" fill="#3F3D56"/>
<path d="M466.145 0C462.191 0 458.327 1.17315 455.039 3.37108C451.752 5.56902 449.19 8.69302 447.677 12.3481C446.164 16.0031 445.768 20.025 446.539 23.9051C447.311 27.7853 449.214 31.3494 452.01 34.1469C454.806 36.9443 458.368 38.8494 462.245 39.6212C466.123 40.393 470.142 39.9969 473.795 38.4829C477.448 36.969 480.57 34.4052 482.766 31.1157C484.963 27.8263 486.135 23.959 486.135 20.0028C486.12 14.7025 484.009 9.62371 480.263 5.87582C476.518 2.12793 471.442 0.0155146 466.145 0V0ZM466.145 6.00084C467.331 6.00084 468.491 6.35278 469.477 7.01216C470.463 7.67154 471.232 8.60875 471.686 9.70525C472.14 10.8018 472.258 12.0083 472.027 13.1724C471.795 14.3364 471.224 15.4057 470.386 16.2449C469.547 17.0841 468.478 17.6557 467.315 17.8872C466.152 18.1187 464.946 17.9999 463.85 17.5457C462.754 17.0915 461.818 16.3224 461.159 15.3356C460.5 14.3487 460.148 13.1885 460.148 12.0017C460.153 10.4118 460.787 8.88853 461.91 7.7643C463.034 6.64008 464.556 6.00614 466.145 6.00084V6.00084ZM466.145 34.8895C463.776 34.8787 461.445 34.2897 459.355 33.1736C457.265 32.0575 455.479 30.448 454.151 28.4847C454.247 24.4842 462.147 22.282 466.145 22.282C470.143 22.282 478.043 24.4842 478.139 28.4847C476.81 30.4465 475.023 32.0549 472.933 33.1708C470.844 34.2867 468.514 34.8766 466.145 34.8895Z" fill="#3F3D56"/>
<path d="M696.029 219.031C692.076 219.031 688.211 220.204 684.923 222.402C681.636 224.6 679.074 227.724 677.561 231.379C676.048 235.034 675.652 239.055 676.423 242.936C677.195 246.816 679.099 250.38 681.894 253.177C684.69 255.975 688.252 257.88 692.129 258.652C696.007 259.424 700.026 259.027 703.679 257.513C707.332 256 710.454 253.436 712.65 250.146C714.847 246.857 716.019 242.989 716.019 239.033C716.004 233.733 713.893 228.654 710.147 224.906C706.402 221.158 701.326 219.046 696.029 219.031ZM696.029 225.031C697.215 225.031 698.375 225.383 699.361 226.043C700.347 226.702 701.116 227.639 701.57 228.736C702.024 229.832 702.142 231.039 701.911 232.203C701.68 233.367 701.108 234.436 700.27 235.275C699.431 236.115 698.363 236.686 697.199 236.918C696.036 237.149 694.83 237.03 693.734 236.576C692.638 236.122 691.702 235.353 691.043 234.366C690.384 233.379 690.032 232.219 690.032 231.032C690.038 229.442 690.671 227.919 691.795 226.795C692.918 225.671 694.44 225.037 696.029 225.031ZM696.029 253.92C693.66 253.909 691.33 253.32 689.239 252.204C687.149 251.088 685.363 249.479 684.035 247.515C684.131 243.515 692.031 241.312 696.029 241.312C700.027 241.312 707.927 243.515 708.023 247.515C706.694 249.477 704.907 251.085 702.817 252.201C700.728 253.317 698.398 253.907 696.029 253.92V253.92Z" fill="#3F3D56"/>
<path d="M734.01 354.049C730.057 354.049 726.192 355.222 722.904 357.42C719.617 359.618 717.055 362.742 715.542 366.397C714.029 370.052 713.633 374.074 714.404 377.954C715.176 381.835 717.079 385.399 719.875 388.196C722.671 390.994 726.233 392.899 730.11 393.671C733.988 394.442 738.007 394.046 741.66 392.532C745.313 391.018 748.435 388.455 750.631 385.165C752.828 381.876 754 378.008 754 374.052C753.985 368.752 751.874 363.673 748.128 359.925C744.383 356.177 739.307 354.065 734.01 354.049V354.049ZM734.01 360.05C735.196 360.05 736.356 360.402 737.342 361.061C738.328 361.721 739.097 362.658 739.551 363.755C740.005 364.851 740.123 366.058 739.892 367.222C739.66 368.386 739.089 369.455 738.251 370.294C737.412 371.133 736.343 371.705 735.18 371.937C734.017 372.168 732.811 372.049 731.715 371.595C730.619 371.141 729.683 370.372 729.024 369.385C728.365 368.398 728.013 367.238 728.013 366.051C728.019 364.461 728.652 362.938 729.775 361.814C730.899 360.689 732.421 360.055 734.01 360.05V360.05ZM734.01 388.939C731.641 388.928 729.31 388.339 727.22 387.223C725.13 386.107 723.344 384.497 722.016 382.534C722.112 378.534 730.012 376.331 734.01 376.331C738.008 376.331 745.908 378.534 746.004 382.534C744.675 384.496 742.888 386.104 740.798 387.22C738.709 388.336 736.379 388.926 734.01 388.939V388.939Z" fill="#3F3D56"/>
<path d="M322.586 376.247C317.513 396.605 296.903 408.996 276.551 403.919C256.2 398.841 243.823 378.219 248.9 357.859C253.977 337.499 274.581 325.107 294.926 330.183C315.271 335.259 327.66 355.883 322.586 376.247Z" fill="#6C63FF"/>
<path d="M289.084 383.814L300.539 370.167L286.083 394.185L289.084 383.814Z" fill="white"/>
<path d="M300.539 367.438L286.083 346.149V367.438H300.539Z" fill="white"/>
<path d="M270.4 370.167L286.083 346.149L287.583 362.798L270.4 370.167Z" fill="white"/>
<path d="M270.4 372.897L289.084 383.814L286.083 394.185L270.4 372.897Z" fill="white"/>
<path d="M300.539 367.438L287.583 362.798V367.438L289.084 381.084L300.539 367.438Z" fill="#D9D6D1"/>
<path d="M270.4 370.167L284.31 361.707L287.583 362.798L289.084 381.085L270.4 370.167Z" fill="#E1D9E1"/>
<path d="M296.039 349.97L297.539 339.736L299.994 340.418L296.039 349.97ZM297.948 351.062L304.221 342.874L305.994 344.785L297.948 351.062ZM299.039 352.836L308.449 349.015L309.131 351.472L299.039 352.836Z" fill="white"/>
</svg>
