<svg width="21" height="15" viewBox="0 0 21 15" fill="none" xmlns="http://www.w3.org/2000/svg">
<path fill-rule="evenodd" clip-rule="evenodd" d="M14.3116 13.5536C14.851 14.2321 15.4983 15 15.4983 15C19.4717 14.875 21 12.2857 21 12.2857C21 6.53579 18.4109 1.87513 18.4109 1.87513C15.8219 -0.0533975 13.3587 0.000148198 13.3587 0.000148198L13.107 0.285878C16.1635 1.21444 17.5839 2.55372 17.5839 2.55372C14.8289 1.04455 11.6581 0.456043 8.54024 0.875163C8.44594 0.875163 8.36539 0.888769 8.27453 0.904133L8.23459 0.910848C7.60531 0.964429 6.07705 1.19658 4.15326 2.03584C3.48802 2.33943 3.09247 2.55372 3.09247 2.55372C3.09247 2.55372 4.58476 1.143 7.82105 0.214437L7.64126 0.000148198C7.64126 0.000148198 5.17809 -0.0533975 2.58903 1.87513C2.58903 1.87513 0 6.53579 0 12.2857C0 12.2857 1.51028 14.875 5.48372 15C5.48372 15 6.14897 14.1964 6.68836 13.5179C4.40497 12.8393 3.54195 11.4107 3.54195 11.4107C3.54195 11.4107 3.72174 11.5357 4.04538 11.7143C4.06336 11.7322 4.08133 11.75 4.11729 11.7679C4.17122 11.8036 4.22517 11.8215 4.2791 11.8572C4.70207 12.0892 5.14062 12.2921 5.5916 12.4643C6.4472 12.7997 7.33187 13.0567 8.23459 13.2321C9.77221 13.5255 11.3514 13.5316 12.8913 13.25C13.7363 13.1072 14.5993 12.8571 15.4983 12.4822C16.1276 12.25 16.8288 11.9107 17.5659 11.4286C17.5659 11.4286 16.6669 12.8929 14.3116 13.5536ZM7.13753 6.66082C6.1127 6.66082 5.30363 7.55366 5.30363 8.64292C5.30363 9.73219 6.13068 10.6251 7.13753 10.6251C8.16235 10.6251 8.97144 9.73219 8.97144 8.64292C8.98942 7.55366 8.16235 6.66082 7.13753 6.66082ZM13.7 6.66082C12.6752 6.66082 11.8661 7.55366 11.8661 8.64292C11.8661 9.73219 12.6932 10.6251 13.7 10.6251C14.7249 10.6251 15.5339 9.73219 15.5339 8.64292C15.5339 7.55366 14.7249 6.66082 13.7 6.66082Z" fill="white"/>
</svg>
