<svg width="21" height="21" viewBox="0 0 21 21" fill="none" xmlns="http://www.w3.org/2000/svg">
<path d="M18.6593 7.707C17.9961 7.707 17.4125 7.98613 16.9828 8.421C15.4035 7.3115 13.2737 6.5975 10.9138 6.52138L12.1397 0.916125L16.0431 1.80513C16.0431 2.77463 16.8218 3.5665 17.7773 3.5665C18.7512 3.5665 19.5343 2.75363 19.5343 1.78325C19.5343 0.812875 18.7565 0 17.7782 0C17.0966 0 16.5086 0.417375 16.2155 0.987875L11.9043 0.018375C11.6873 -0.04025 11.4747 0.11725 11.417 0.33775L10.0712 6.517C7.72972 6.61588 5.62272 7.329 4.03809 8.43938C3.60847 7.98613 3.00209 7.707 2.33884 7.707C-0.121658 7.707 -0.927533 11.0574 1.32559 12.2028C1.24597 12.5571 1.21009 12.9351 1.21009 13.3123C1.21009 17.0756 5.38822 20.125 10.5183 20.125C15.6703 20.125 19.8485 17.0756 19.8485 13.3123C19.8485 12.9351 19.8091 12.5396 19.712 12.1844C21.9196 11.0346 21.1067 7.70875 18.6593 7.707V7.707ZM4.90084 12.4408C4.90084 11.4529 5.67959 10.6575 6.65784 10.6575C7.61334 10.6575 8.39297 11.4476 8.39297 12.4408C8.39297 13.4111 7.61422 14.2021 6.65784 14.2021C5.68397 14.2065 4.90084 13.4111 4.90084 12.4408V12.4408ZM14.385 16.639C12.7741 18.2735 8.22847 18.2735 6.61672 16.639C6.43909 16.4815 6.43909 16.2033 6.61672 16.0239C6.77159 15.8664 7.04634 15.8664 7.20122 16.0239C8.43147 17.304 12.5125 17.3259 13.7961 16.0239C13.951 15.8664 14.2257 15.8664 14.3806 16.0239C14.5617 16.2041 14.5617 16.4824 14.385 16.639V16.639ZM14.3491 14.2056C13.3936 14.2056 12.6148 13.4155 12.6148 12.446C12.6148 11.4581 13.3936 10.6628 14.3491 10.6628C15.323 10.6628 16.1061 11.4529 16.1061 12.446C16.1017 13.4111 15.323 14.2056 14.3491 14.2056Z" fill="white"/>
</svg>
