<svg width="21" height="16" viewBox="0 0 21 16" fill="none" xmlns="http://www.w3.org/2000/svg">
<path d="M6.59662 16C14.5215 16 18.8567 9.84279 18.8567 4.51261C18.8567 4.34031 18.8567 4.16555 18.8488 3.99326C19.6928 3.42035 20.4213 2.71105 21 1.8986C20.2116 2.22455 19.3761 2.43938 18.5207 2.5361C19.4218 2.03107 20.0966 1.23644 20.4199 0.299914C19.5733 0.770195 18.6467 1.10033 17.6807 1.27586C17.0312 0.62731 16.1718 0.197664 15.2356 0.0534748C14.2994 -0.0907147 13.3386 0.0585995 12.502 0.478289C11.6654 0.897978 10.9998 1.56462 10.6082 2.37495C10.2166 3.18529 10.1209 4.09409 10.3359 4.96059C8.62279 4.88004 6.94682 4.46273 5.41674 3.73572C3.88667 3.00871 2.53665 1.98825 1.45425 0.740506C0.904759 1.63041 0.737066 2.68305 0.985223 3.68468C1.23338 4.6863 1.87878 5.56182 2.79037 6.13345C2.10727 6.11169 1.43918 5.93969 0.84 5.63132V5.6867C0.841178 6.61894 1.18559 7.5222 1.81502 8.24381C2.44445 8.96542 3.32029 9.46112 4.2945 9.64711C3.92472 9.74263 3.54274 9.79025 3.15919 9.78864C2.88879 9.78941 2.61894 9.76592 2.35331 9.71849C2.62866 10.521 3.1648 11.2226 3.88664 11.7251C4.60848 12.2276 5.47986 12.5058 6.37875 12.5208C4.85173 13.6454 2.96546 14.2554 1.02375 14.2524C0.681608 14.2538 0.339705 14.2353 0 14.197C1.97074 15.3751 4.25945 16.0007 6.59662 16V16Z" fill="white"/>
</svg>
