<svg width="16" height="16" viewBox="0 0 16 16" fill="none" xmlns="http://www.w3.org/2000/svg">
<path d="M4.64592 4.64592C4.69236 4.59935 4.74754 4.56241 4.80828 4.5372C4.86903 4.512 4.93415 4.49902 4.99992 4.49902C5.06568 4.49902 5.13081 4.512 5.19155 4.5372C5.2523 4.56241 5.30747 4.59935 5.35392 4.64592L7.99992 7.29292L10.6459 4.64592C10.6924 4.59943 10.7476 4.56255 10.8083 4.53739C10.8691 4.51223 10.9342 4.49929 10.9999 4.49929C11.0657 4.49929 11.1308 4.51223 11.1915 4.53739C11.2522 4.56255 11.3074 4.59943 11.3539 4.64592C11.4004 4.6924 11.4373 4.74759 11.4624 4.80833C11.4876 4.86907 11.5005 4.93417 11.5005 4.99992C11.5005 5.06566 11.4876 5.13076 11.4624 5.1915C11.4373 5.25224 11.4004 5.30743 11.3539 5.35392L8.70692 7.99992L11.3539 10.6459C11.4004 10.6924 11.4373 10.7476 11.4624 10.8083C11.4876 10.8691 11.5005 10.9342 11.5005 10.9999C11.5005 11.0657 11.4876 11.1308 11.4624 11.1915C11.4373 11.2522 11.4004 11.3074 11.3539 11.3539C11.3074 11.4004 11.2522 11.4373 11.1915 11.4624C11.1308 11.4876 11.0657 11.5005 10.9999 11.5005C10.9342 11.5005 10.8691 11.4876 10.8083 11.4624C10.7476 11.4373 10.6924 11.4004 10.6459 11.3539L7.99992 8.70692L5.35392 11.3539C5.30743 11.4004 5.25224 11.4373 5.1915 11.4624C5.13076 11.4876 5.06566 11.5005 4.99992 11.5005C4.93417 11.5005 4.86907 11.4876 4.80833 11.4624C4.74759 11.4373 4.6924 11.4004 4.64592 11.3539C4.59943 11.3074 4.56255 11.2522 4.53739 11.1915C4.51223 11.1308 4.49929 11.0657 4.49929 10.9999C4.49929 10.9342 4.51223 10.8691 4.53739 10.8083C4.56255 10.7476 4.59943 10.6924 4.64592 10.6459L7.29292 7.99992L4.64592 5.35392C4.59935 5.30747 4.56241 5.2523 4.5372 5.19155C4.512 5.13081 4.49902 5.06568 4.49902 4.99992C4.49902 4.93415 4.512 4.86903 4.5372 4.80828C4.56241 4.74754 4.59935 4.69236 4.64592 4.64592Z" fill="white"/>
</svg>
