<svg width="357" height="528" viewBox="0 0 357 528" fill="none" xmlns="http://www.w3.org/2000/svg">
<path d="M117.959 107.633L158.099 225.796M117.959 107.633L2 301.994M117.959 107.633L259.563 248.987M158.099 225.796L178.169 391.445M158.099 225.796L2 301.994M158.099 225.796L259.563 248.987M178.169 391.445L2 301.994M178.169 391.445L259.563 248.987M178.169 433.409L2 342.854L178.169 526.173M178.169 433.409L259.563 342.854L178.169 526.173M178.169 433.409V526.173" stroke="#F2F2F2" stroke-width="1.5"/>
<path d="M275.335 1.35059L215.744 109.559L287.57 16.3373L275.335 1.35059Z" fill="#F2F2F2"/>
<path d="M327.702 49.7479L239.913 136.657L335.193 67.5856L327.702 49.7479Z" fill="#F2F2F2"/>
<path d="M350.618 105.069L281.027 146.472L352.562 117.601L350.618 105.069Z" fill="#F2F2F2"/>
</svg>
