<svg width="24" height="35" viewBox="0 0 24 35" fill="none" xmlns="http://www.w3.org/2000/svg">
<path d="M8.43036 6.87665L11.0024 14.4482M8.43036 6.87665L1 19.3308M8.43036 6.87665L17.504 15.9342M11.0024 14.4482L12.2884 25.0626M11.0024 14.4482L1 19.3308M11.0024 14.4482L17.504 15.9342M12.2884 25.0626L1 19.3308M12.2884 25.0626L17.504 15.9342M12.2884 27.7516L1 21.949L12.2884 33.6956M12.2884 27.7516L17.504 21.949L12.2884 33.6956M12.2884 27.7516V33.6956" stroke="#282C34"/>
<path d="M18.5144 0.0663876L14.696 7.00012L19.2984 1.0267L18.5144 0.0663876Z" fill="#282C34"/>
<path d="M21.87 3.16751L16.2447 8.73644L22.3501 4.3105L21.87 3.16751Z" fill="#282C34"/>
<path d="M23.3385 6.71237L18.8793 9.36537L23.4631 7.51539L23.3385 6.71237Z" fill="#282C34"/>
</svg>
