<svg width="16" height="16" viewBox="0 0 16 16" fill="none" xmlns="http://www.w3.org/2000/svg">
<path fill-rule="evenodd" clip-rule="evenodd" d="M2.5 11.5C2.5 11.3674 2.55268 11.2402 2.64645 11.1464C2.74021 11.0527 2.86739 11 3 11H13C13.1326 11 13.2598 11.0527 13.3536 11.1464C13.4473 11.2402 13.5 11.3674 13.5 11.5C13.5 11.6326 13.4473 11.7598 13.3536 11.8536C13.2598 11.9473 13.1326 12 13 12H3C2.86739 12 2.74021 11.9473 2.64645 11.8536C2.55268 11.7598 2.5 11.6326 2.5 11.5ZM2.5 7.5C2.5 7.36739 2.55268 7.24021 2.64645 7.14645C2.74021 7.05268 2.86739 7 3 7H13C13.1326 7 13.2598 7.05268 13.3536 7.14645C13.4473 7.24021 13.5 7.36739 13.5 7.5C13.5 7.63261 13.4473 7.75979 13.3536 7.85355C13.2598 7.94732 13.1326 8 13 8H3C2.86739 8 2.74021 7.94732 2.64645 7.85355C2.55268 7.75979 2.5 7.63261 2.5 7.5ZM2.5 3.5C2.5 3.36739 2.55268 3.24021 2.64645 3.14645C2.74021 3.05268 2.86739 3 3 3H13C13.1326 3 13.2598 3.05268 13.3536 3.14645C13.4473 3.24021 13.5 3.36739 13.5 3.5C13.5 3.63261 13.4473 3.75979 13.3536 3.85355C13.2598 3.94732 13.1326 4 13 4H3C2.86739 4 2.74021 3.94732 2.64645 3.85355C2.55268 3.75979 2.5 3.63261 2.5 3.5Z" fill="white"/>
</svg>
