<svg width="230" height="340" viewBox="0 0 230 340" fill="none" xmlns="http://www.w3.org/2000/svg">
<path d="M114.855 251.204L228 193.754L153.525 68.9252L62.5795 159.71L114.855 251.204Z" fill="#FFD89D"/>
<path d="M228 219.997L114.855 278.156L62.5795 219.997L114.855 337.734L228 219.997Z" fill="#FFD89D"/>
<path d="M153.525 68.9252L127.745 144.816M153.525 68.9252L228 193.754M153.525 68.9252L62.5795 159.71M127.745 144.816L114.855 251.204M127.745 144.816L228 193.754M127.745 144.816L62.5795 159.71M114.855 251.204L228 193.754M114.855 251.204L62.5795 159.71M114.855 278.156L228 219.997L114.855 337.734M114.855 278.156L62.5795 219.997L114.855 337.734M114.855 278.156V337.734" stroke="#282C34" stroke-width="1.5"/>
<path d="M52.4503 0.665247L90.7226 70.1626L44.5921 10.2905L52.4503 0.665247Z" fill="#282C34"/>
<path d="M18.8172 31.7486L75.2001 87.5663L14.0057 43.2048L18.8172 31.7486Z" fill="#282C34"/>
<path d="M4.09932 67.2784L48.7943 93.8696L2.8503 75.3272L4.09932 67.2784Z" fill="#282C34"/>
</svg>
