<svg width="814" height="713" viewBox="0 0 814 713" fill="none" xmlns="http://www.w3.org/2000/svg">
<path d="M744.346 548.264C809.695 489.122 832.912 408.297 796.203 367.735C759.495 327.174 676.761 342.237 611.412 401.379C546.063 460.52 522.846 541.346 559.555 581.907C596.264 622.468 678.998 607.406 744.346 548.264Z" fill="#F2F2F2"/>
<path d="M554.213 710.166C545.4 691.961 542.279 671.449 543.814 651.366C545.478 631.41 551.366 612.036 561.086 594.527C570.522 577.629 582.492 562.278 596.58 549.007C611.38 534.829 628.069 522.794 645.629 512.275C664.171 501.167 683.654 491.728 703.365 482.896C705.821 481.795 708.281 480.703 710.745 479.619C712.362 478.907 710.963 476.536 709.356 477.244C689.26 486.092 669.334 495.417 650.279 506.358C632.075 516.81 614.659 528.768 599.099 542.898C584.437 556.005 571.805 571.219 561.617 588.042C551.187 605.352 544.424 624.619 541.747 644.65C539.177 664.823 541.164 685.802 548.812 704.73C549.744 707.038 550.753 709.313 551.837 711.555C552.608 713.148 554.982 711.754 554.213 710.166V710.166Z" fill="#E6E6E6"/>
<path d="M630.11 519.291C629.2 504.289 630.329 489.233 633.466 474.534C636.593 459.827 641.668 445.603 648.558 432.239C652.436 424.737 656.881 417.541 661.854 410.715C662.897 409.282 660.511 407.907 659.478 409.326C650.544 421.632 643.312 435.087 637.98 449.328C632.634 463.571 629.205 478.461 627.781 493.606C626.977 502.144 626.836 510.732 627.358 519.291C627.465 521.051 630.218 521.063 630.11 519.291H630.11Z" fill="#E6E6E6"/>
<path d="M335.707 496.802C420.765 419.823 450.985 314.62 403.205 261.825C355.424 209.031 247.737 228.636 162.679 305.615C77.6209 382.595 47.4012 487.797 95.1815 540.592C142.962 593.387 250.649 573.782 335.707 496.802Z" fill="#F2F2F2"/>
<path d="M88.228 707.535C76.7575 683.839 72.6956 657.141 74.6926 631.001C76.6771 605.026 84.6984 579.829 97.1738 557.019C109.255 534.929 125.223 515.156 143.374 497.769C162.638 479.316 184.36 463.65 207.216 449.958C231.35 435.501 256.71 423.214 282.365 411.719C285.562 410.286 288.764 408.865 291.971 407.454C294.076 406.527 292.256 403.441 290.164 404.362C264.007 415.879 238.07 428.016 213.268 442.257C189.574 455.862 166.905 471.426 146.652 489.818C127.759 506.975 110.921 526.602 97.8654 548.577C84.2901 571.108 75.4872 596.187 72.0022 622.259C68.6574 648.517 71.2433 675.822 81.1978 700.459C82.4116 703.463 83.7242 706.424 85.1356 709.342C86.1396 711.416 89.2289 709.602 88.228 707.535V707.535Z" fill="#E6E6E6"/>
<path d="M187.016 459.091C185.832 439.564 187.302 419.967 191.384 400.835C195.454 381.692 202.061 363.179 211.028 345.784C216.077 336.019 221.862 326.653 228.334 317.767C229.693 315.902 226.587 314.113 225.242 315.96C213.613 331.977 204.201 349.491 197.259 368.027C190.302 386.565 185.838 405.946 183.985 425.66C182.939 436.773 182.755 447.95 183.435 459.091C183.574 461.381 187.156 461.397 187.016 459.091L187.016 459.091Z" fill="#E6E6E6"/>
<path d="M501.618 203C480.146 203 458.754 188.241 441.382 161.441C426.107 137.876 416.618 108.585 416.618 85C416.618 73.8376 418.817 62.7846 423.088 52.4719C427.36 42.1592 433.621 32.7889 441.514 24.8959C449.407 17.0029 458.777 10.7419 469.09 6.47024C479.403 2.19859 490.456 0 501.618 0C512.781 0 523.834 2.19859 534.146 6.47024C544.459 10.7419 553.829 17.0029 561.722 24.8959C569.615 32.7889 575.876 42.1592 580.148 52.4719C584.42 62.7846 586.618 73.8376 586.618 85C586.618 108.585 577.129 137.876 561.854 161.441C544.482 188.241 523.09 203 501.618 203ZM501.618 2C479.613 2.02484 458.516 10.7774 442.956 26.3376C427.396 41.8977 418.643 62.9946 418.618 85C418.618 130.808 455.802 201 501.618 201C547.434 201 584.618 130.808 584.618 85C584.593 62.9946 575.841 41.8977 560.281 26.3376C544.72 10.7774 523.624 2.02484 501.618 2V2Z" fill="#3F3D56"/>
<path d="M509.632 221H493.605C492.856 221 492.117 220.832 491.442 220.508C490.767 220.184 490.173 219.713 489.705 219.129C489.236 218.545 488.905 217.863 488.735 217.134C488.565 216.404 488.561 215.646 488.724 214.916L491.816 201H511.42L514.512 214.916C514.675 215.646 514.671 216.404 514.501 217.134C514.331 217.863 514 218.545 513.532 219.129C513.063 219.713 512.469 220.184 511.794 220.508C511.119 220.832 510.38 221 509.631 221H509.632ZM493.42 203L490.676 215.349C490.579 215.788 490.581 216.243 490.683 216.68C490.785 217.118 490.983 217.527 491.264 217.877C491.546 218.228 491.902 218.51 492.307 218.705C492.712 218.899 493.155 219 493.605 219H509.632C510.081 219 510.524 218.899 510.929 218.705C511.334 218.51 511.691 218.228 511.972 217.877C512.253 217.527 512.452 217.118 512.553 216.68C512.655 216.243 512.658 215.788 512.56 215.349L509.816 203H493.42Z" fill="#3F3D56"/>
<path d="M462.058 24.8613C448.862 32.8743 439.373 45.7834 435.663 60.7694C434.637 64.9373 434.092 69.209 434.038 73.501C434.052 73.8899 434.215 74.2583 434.495 74.5286C434.775 74.7989 435.149 74.95 435.538 74.95C435.927 74.95 436.301 74.7989 436.581 74.5286C436.861 74.2583 437.025 73.8899 437.038 73.501C437.343 58.9191 443.387 45.0459 453.859 34.8936C456.796 32.0437 460.056 29.5463 463.572 27.4517C463.901 27.2439 464.137 26.9164 464.229 26.5383C464.322 26.1601 464.263 25.7609 464.067 25.4248C463.871 25.0888 463.551 24.8422 463.177 24.737C462.802 24.6319 462.401 24.6765 462.058 24.8613H462.058Z" fill="#3F3D56"/>
<path d="M487.726 204.884C505.848 203.957 526.471 203.462 540.595 216.83C546.486 222.406 550.202 229.878 549.978 238.091C549.734 247.03 545.189 255.403 539.556 262.118C527.43 276.574 509.647 285.612 492.592 292.897C474.466 300.64 455.583 306.686 438.168 316.029C422.877 324.232 408.624 335.305 399.387 350.222C394.842 357.453 391.828 365.538 390.531 373.979C389.339 382.439 389.768 391.05 391.794 399.351C395.862 416.364 405.877 431.401 419.222 442.574C432.728 453.881 449.088 461.411 466.039 465.909C486.161 471.249 507.127 472.458 527.86 472.579C549.272 472.704 570.703 471.656 592.101 472.856C597.306 473.148 602.502 473.579 607.68 474.179C609.595 474.401 609.579 471.399 607.68 471.179C586.304 468.702 564.759 469.27 543.287 469.513C522.235 469.751 501.006 469.677 480.216 465.961C462.29 462.756 444.715 456.75 429.513 446.564C414.95 436.806 403.082 423.124 397.076 406.523C391.21 390.306 391.271 372.358 399.127 356.812C406.992 341.246 420.712 329.471 435.62 320.878C452.825 310.961 471.769 304.755 490.046 297.194C507.309 290.052 524.966 281.536 538.227 268.035C544.368 261.782 549.628 254.173 551.88 245.611C552.979 241.606 553.244 237.418 552.658 233.307C552.073 229.196 550.65 225.248 548.477 221.71C544.13 215.055 537.924 209.824 530.63 206.665C521.827 202.699 512.06 201.555 502.49 201.459C497.565 201.409 492.643 201.633 487.726 201.884C485.804 201.983 485.793 204.983 487.726 204.884H487.726Z" fill="#3F3D56"/>
<path d="M395.471 691.743L383.447 694.137L368.491 648.9L386.237 645.366L395.471 691.743Z" fill="#FFB8B8"/>
<path d="M400.859 702.788L362.089 710.508L361.991 710.017C361.597 708.036 361.596 705.996 361.99 704.014C362.384 702.032 363.164 700.147 364.286 698.467C365.408 696.787 366.85 695.344 368.53 694.221C370.21 693.098 372.095 692.317 374.076 691.922L374.077 691.922L397.756 687.207L400.859 702.788Z" fill="#2F2E41"/>
<path d="M510.334 698.624L498.074 698.623L484.242 651.335L502.336 651.336L510.334 698.624Z" fill="#FFB8B8"/>
<path d="M513.46 710.508L473.93 710.506V710.006C473.93 707.986 474.328 705.985 475.101 704.118C475.874 702.251 477.008 700.555 478.436 699.126C479.865 697.698 481.561 696.564 483.428 695.791C485.295 695.018 487.296 694.62 489.316 694.62H489.317L513.461 694.621L513.46 710.508Z" fill="#2F2E41"/>
<path d="M481.069 563.562C482.047 562.334 482.745 560.906 483.112 559.379C483.48 557.852 483.508 556.263 483.194 554.725C482.881 553.186 482.234 551.734 481.299 550.472C480.365 549.21 479.164 548.169 477.783 547.421L453.291 452.691L431.988 462.28L462.762 552.381C461.659 554.785 461.476 557.509 462.248 560.038C463.02 562.567 464.692 564.725 466.949 566.103C469.205 567.481 471.889 567.984 474.491 567.516C477.094 567.047 479.434 565.641 481.069 563.562V563.562Z" fill="#FFB8B8"/>
<path d="M459.021 468.564L435.345 474.155C434.671 474.315 433.971 474.327 433.292 474.191C432.614 474.055 431.972 473.774 431.412 473.368C430.851 472.962 430.385 472.44 430.044 471.837C429.704 471.235 429.497 470.566 429.438 469.876L427.383 445.709C426.589 442.258 427.196 438.633 429.07 435.628C430.945 432.623 433.934 430.485 437.383 429.681C440.832 428.877 444.459 429.474 447.469 431.34C450.479 433.206 452.626 436.19 453.439 439.636L462.389 462.094C462.645 462.737 462.76 463.428 462.725 464.119C462.69 464.811 462.506 465.486 462.187 466.1C461.867 466.714 461.419 467.252 460.873 467.677C460.326 468.102 459.695 468.405 459.021 468.564V468.564Z" fill="#6C63FF"/>
<path d="M378.252 683.168C377.218 683.169 376.216 682.812 375.416 682.159C374.615 681.506 374.064 680.596 373.858 679.584L361.929 622.326C361.187 618.719 361.166 615.002 361.866 611.387C362.566 607.772 363.974 604.332 366.008 601.263L403.589 544.892V502.644L447.217 492.813L447.405 492.966C470.037 511.447 468.735 534.229 468.596 535.99L511.472 675.218C511.68 675.891 511.726 676.604 511.608 677.298C511.49 677.992 511.21 678.649 510.792 679.216C510.374 679.783 509.828 680.243 509.199 680.561C508.571 680.878 507.876 681.043 507.172 681.043H494.297C493.397 681.046 492.517 680.778 491.772 680.273C491.026 679.769 490.45 679.051 490.119 678.214L443.908 567.84L389.521 612.6C389.086 612.959 388.743 613.418 388.523 613.938C388.303 614.458 388.212 615.024 388.257 615.586L393.272 677.131C393.373 678.299 393.012 679.46 392.266 680.365C391.52 681.27 390.45 681.846 389.284 681.969L378.76 683.139C378.591 683.158 378.421 683.167 378.252 683.168V683.168Z" fill="#2F2E41"/>
<path d="M434.022 413.955C447.587 413.955 458.583 402.959 458.583 389.394C458.583 375.829 447.587 364.833 434.022 364.833C420.458 364.833 409.461 375.829 409.461 389.394C409.461 402.959 420.458 413.955 434.022 413.955Z" fill="#FFB8B8"/>
<path d="M405.913 507.331C405.018 507.331 404.144 507.066 403.4 506.568C402.656 506.071 402.076 505.364 401.735 504.538C393.507 484.337 393.643 458.824 397.252 443.666C398.789 437.249 402.53 431.574 407.822 427.632C413.114 423.69 419.623 421.73 426.212 422.094H426.212C430.133 422.303 433.968 423.329 437.47 425.104C440.973 426.88 444.066 429.367 446.552 432.406C449.039 435.445 450.864 438.97 451.91 442.755C452.957 446.54 453.202 450.501 452.63 454.386C450.707 467.42 449.926 485.779 449.679 493.066C449.642 494.039 449.292 494.973 448.68 495.731C448.068 496.488 447.228 497.027 446.285 497.267L407.011 507.194C406.652 507.285 406.283 507.331 405.913 507.331V507.331Z" fill="#6C63FF"/>
<path d="M406.364 360.705C405.853 360.915 405.325 361.085 404.787 361.213L387.491 407.693L395.154 416.99L382.635 430.388L367.47 415.249C366.245 414.025 365.45 412.438 365.203 410.724C364.957 409.011 365.274 407.264 366.105 405.745L393.2 356.255C392.138 354.407 391.664 352.279 391.841 350.155C392.018 348.031 392.837 346.011 394.19 344.363C395.543 342.716 397.365 341.52 399.415 340.933C401.464 340.347 403.643 340.398 405.663 341.081C407.682 341.764 409.446 343.045 410.72 344.754C411.993 346.463 412.716 348.52 412.792 350.65C412.868 352.781 412.294 354.884 411.146 356.68C409.998 358.476 408.33 359.88 406.364 360.705V360.705Z" fill="#FFB8B8"/>
<path d="M378.212 429.058L392.007 409.019C392.4 408.449 392.91 407.97 393.505 407.616C394.099 407.261 394.763 407.038 395.451 406.963C396.139 406.887 396.835 406.961 397.492 407.179C398.149 407.397 398.751 407.755 399.258 408.226L417.004 424.759C419.91 426.783 421.895 429.878 422.523 433.364C423.151 436.85 422.371 440.442 420.354 443.354C418.337 446.265 415.248 448.258 411.764 448.895C408.279 449.532 404.685 448.761 401.768 446.752L380.058 436.114C379.437 435.809 378.888 435.374 378.45 434.838C378.012 434.302 377.695 433.678 377.519 433.009C377.344 432.339 377.315 431.64 377.435 430.958C377.554 430.276 377.819 429.628 378.212 429.058H378.212Z" fill="#6C63FF"/>
<path d="M432.608 417.543C430.838 415.581 431.873 412.21 433.51 410.116C435.147 408.021 437.359 406.242 438.005 403.586C439.104 399.063 435.002 394.939 430.91 393.478C426.818 392.016 422.233 391.903 418.629 389.34C413.167 385.455 411.922 376.601 415.061 370.383C418.199 364.165 424.76 360.599 431.271 360.066C437.782 359.533 444.253 361.65 450.212 364.548C455.976 367.35 461.536 371 465.587 376.262C469.637 381.523 472.02 388.594 470.85 395.333C469.421 403.563 462.972 409.916 455.807 413.017C448.642 416.119 440.768 416.528 433.062 416.899L432.608 417.543Z" fill="#2F2E41"/>
<path d="M459.952 370.651C467.484 363.194 477.563 358.87 488.157 358.551C498.752 358.233 509.073 361.943 517.039 368.935C530.332 380.602 535.4 399.816 549.353 410.685C561.916 420.47 580.779 421.198 594.059 412.412C587.995 419.496 581.826 426.674 574.063 431.839C566.3 437.005 556.598 439.988 547.54 437.772C536.908 435.171 529.171 426.118 523.162 416.968C517.154 407.818 511.858 397.795 503.147 391.167C496.544 386.175 488.475 383.51 480.198 383.587C475.13 383.65 469.957 384.737 465.06 383.431C460.163 382.125 455.665 377.13 457.296 372.332L459.952 370.651Z" fill="#2F2E41"/>
<path d="M687 712H1C0.734784 712 0.480429 711.895 0.292892 711.707C0.105356 711.52 0 711.265 0 711C0 710.735 0.105356 710.48 0.292892 710.293C0.480429 710.105 0.734784 710 1 710H687C687.265 710 687.52 710.105 687.707 710.293C687.895 710.48 688 710.735 688 711C688 711.265 687.895 711.52 687.707 711.707C687.52 711.895 687.265 712 687 712Z" fill="#3F3D56"/>
<path d="M509.472 142.523L538 109L502 168L509.472 142.523Z" fill="#7C05F5"/>
<path d="M538 102L502 50V102H538Z" fill="#3CE275"/>
<path d="M464 109L502.333 50L506 90.8977L464 109Z" fill="#3BB6E2"/>
<path d="M464 116L510 142.667L502.613 168L464 116Z" fill="#EF5C03"/>
<path d="M538 102.418L506 91V102.418L509.705 136L538 102.418Z" fill="#E2B23B"/>
<path d="M464 108.958L498.248 88L506.307 90.7042L510 136L464 108.958Z" fill="#E13BE2"/>
<path d="M527 59L530.667 34L536.667 35.6667L527 59ZM531.667 61.6667L547 41.6667L551.333 46.3333L531.667 61.6667ZM534.333 66L557.333 56.6667L559 62.6667L534.333 66Z" fill="#EF5F08"/>
</svg>
